<?xml version="1.0" encoding="UTF-8" standalone="no"?>
<!-- Created with Inkscape (http://www.inkscape.org/) -->

<svg
   width="80px"
   height="80px"
   viewBox="0 0 192.83302 192.83302"
   version="1.1"
   id="svg5"
   sodipodi:docname="cab.svg"
   inkscape:version="1.1.1 (3bf5ae0d25, 2021-09-20)"
   inkscape:export-filename="C:\Users\Administrator\Desktop\cab.png"
   inkscape:export-xdpi="1200"
   inkscape:export-ydpi="1200"
   xmlns:inkscape="http://www.inkscape.org/namespaces/inkscape"
   xmlns:sodipodi="http://sodipodi.sourceforge.net/DTD/sodipodi-0.dtd"
   xmlns="http://www.w3.org/2000/svg"
   xmlns:svg="http://www.w3.org/2000/svg">
  <sodipodi:namedview
     id="namedview7"
     pagecolor="#ffffff"
     bordercolor="#666666"
     borderopacity="1.0"
     inkscape:pageshadow="2"
     inkscape:pageopacity="0.0"
     inkscape:pagecheckerboard="0"
     inkscape:document-units="mm"
     showgrid="false"
     inkscape:zoom="2.1736812"
     inkscape:cx="69.467407"
     inkscape:cy="0.92009811"
     inkscape:window-width="1284"
     inkscape:window-height="860"
     inkscape:window-x="104"
     inkscape:window-y="0"
     inkscape:window-maximized="0"
     inkscape:current-layer="layer1" />
  <defs
     id="defs2" />
  <g
     inkscape:label="Layer 1"
     inkscape:groupmode="layer"
     id="layer1"
     transform="translate(-12.158902,-41.372017)">
    <path
       style="fill:#000000;stroke-width:0.192833"
       d="m 48.72503,190.16673 c -4.31646,-0.76462 -6.99383,-2.2893 -10.5782,-6.02396 -1.38628,-1.44441 -2.04607,-2.31673 -2.68123,-3.54492 -1.43426,-2.77341 -1.76976,-3.16032 -3.53475,-4.07641 -2.83702,-1.4725 -5.03532,-4.19277 -5.82819,-7.21209 -0.38551,-1.46804 -0.66806,-7.23365 -0.67249,-13.72305 l -0.003,-5.06334 0.89897,-2.44106 c 2.33982,-6.35355 7.02368,-14.32639 13.46259,-22.91596 1.66858,-2.22588 3.1913,-4.35542 3.38385,-4.7323 0.19254,-0.37688 0.41317,-1.3314 0.49029,-2.12116 0.16082,-1.64699 0.60536,-3.07599 1.29286,-4.15606 0.696,-1.09341 2.02108,-2.33135 3.02516,-2.82621 l 0.87549,-0.43148 30.75687,-0.0592 c 31.16555,-0.06 35.38147,0.0109 38.42386,0.64591 3.65608,0.76309 10.13044,3.33394 14.37991,5.71002 6.12735,3.42609 10.55967,7.00724 17.80726,14.38764 2.08691,2.12516 4.20473,4.14625 4.70627,4.49132 2.05355,1.41288 3.38323,1.62742 11.87121,1.9154 8.64787,0.29341 10.34506,0.57284 13.97037,2.30016 6.95914,3.31577 11.96681,9.50977 13.77152,17.03401 0.60014,2.50212 0.83178,7.19598 0.7113,14.41352 -0.0593,3.55295 -0.18473,6.72023 -0.27871,7.03841 -0.28012,0.94831 -1.60148,1.23056 -9.85441,2.10494 l -4.30982,0.45662 -2.53575,2.53313 c -1.39466,1.39322 -2.96962,2.84188 -3.49991,3.21925 -3.87336,2.75635 -9.3093,3.94285 -13.78756,3.0094 -4.06507,-0.84732 -6.50516,-2.20493 -10.2891,-5.72462 l -2.39112,-2.22414 h -40.2476 -40.2476 l -2.05442,1.95263 c -3.4143,3.24512 -6.14962,4.923 -9.42377,5.78063 -1.93794,0.50763 -5.57734,0.64295 -7.60968,0.28294 z m 6.58094,-4.08807 c 4.68313,-1.16016 8.91612,-5.02243 10.4341,-9.52029 0.53483,-1.58474 0.75066,-6.07184 0.38215,-7.94494 -0.98947,-5.02937 -6.11591,-10.09966 -11.08673,-10.96529 -0.7871,-0.13707 -2.44991,-0.19273 -4.2212,-0.14129 -2.58275,0.075 -3.06331,0.14258 -4.1333,0.58128 -4.75336,1.94892 -8.30754,6.14563 -9.21313,10.87873 -0.93141,4.86803 0.47907,9.63616 3.86757,13.0744 2.26848,2.30178 4.81724,3.68 7.90615,4.27518 1.61569,0.31132 4.26762,0.20734 6.06439,-0.23778 z m -5.43331,-5.57782 c -1.60006,-0.38786 -2.96555,-1.14307 -4.20579,-2.32605 -1.24921,-1.19154 -1.9744,-2.41198 -2.39677,-4.03358 -1.08537,-4.16702 0.91287,-8.39145 4.85483,-10.26348 3.39013,-1.60997 7.52518,-0.75906 10.16442,2.09163 1.89734,2.04936 2.68239,4.53602 2.25783,7.15171 -0.30781,1.89643 -0.99087,3.22761 -2.44966,4.774 -1.39688,1.48077 -2.58449,2.19436 -4.34107,2.60842 -1.4937,0.35208 -2.42305,0.35145 -3.88379,-0.003 z m 4.58909,-4.43191 c 0.5813,-0.35939 1.1631,-0.94164 1.52389,-1.52505 0.52355,-0.84662 0.58359,-1.10401 0.58359,-2.50173 0,-1.75478 -0.32887,-2.64537 -1.35625,-3.67276 -2.37043,-2.37042 -6.47817,-1.57962 -7.92408,1.52552 -1.10476,2.37247 0.0171,5.21643 2.52978,6.41309 1.40952,0.67129 3.33059,0.57237 4.64307,-0.23907 z m 113.44121,10.0292 c 0.67433,-0.15897 1.83362,-0.59395 2.5762,-0.96662 3.54136,-1.77728 5.86891,-4.2401 7.46352,-7.89726 0.66335,-1.52135 0.67419,-1.5897 0.75107,-4.73636 0.0484,-1.97914 -0.007,-3.60048 -0.14469,-4.26541 -0.92348,-4.44838 -6.23611,-9.74694 -10.59687,-10.56882 -0.57128,-0.10767 -2.22985,-0.19576 -3.68571,-0.19576 -3.1861,0 -4.30018,0.18963 -6.07424,1.03392 -3.28334,1.56256 -6.30431,4.88392 -7.7553,8.52646 -0.51353,1.28915 -0.53123,1.4531 -0.51866,4.80568 0.015,4.00199 0.22142,4.91254 1.65123,7.28366 2.00293,3.32154 5.26501,5.84438 8.93672,6.9115 1.51723,0.44095 5.65515,0.47956 7.39673,0.069 z m -5.21013,-5.50478 c -1.69139,-0.24815 -2.81136,-0.87681 -4.41957,-2.48078 -1.68696,-1.68252 -2.37988,-2.95027 -2.68695,-4.91598 -0.60613,-3.88008 1.2972,-7.4725 4.90301,-9.25416 2.26628,-1.1198 4.7263,-1.14625 7.57229,-0.0814 2.31264,0.86528 4.78229,4.24789 5.02055,6.87655 0.13243,1.46102 -0.23988,3.75173 -0.81384,5.0073 -0.57436,1.25645 -2.29511,3.09269 -3.51873,3.75489 -1.76436,0.95483 -4.11265,1.37884 -6.05676,1.09361 z m 3.34873,-4.14186 c 2.02916,-0.69141 3.14169,-2.36053 3.14199,-4.71395 2e-4,-1.49181 -0.59257,-2.68238 -1.81922,-3.65391 -3.27327,-2.59247 -7.91868,-0.41617 -7.91868,3.70978 0,2.88786 1.92784,4.89882 4.73827,4.94257 0.53791,0.008 1.37385,-0.11965 1.85764,-0.28449 z m -19.51572,1.46932 c 0,-0.0991 -0.1322,-0.80868 -0.29377,-1.57678 -0.66,-3.1375 -0.55509,-6.4011 0.30858,-9.5999 1.65992,-6.14788 6.66457,-11.03108 13.09783,-12.77998 1.4179,-0.38545 2.08146,-0.44477 4.91725,-0.43955 3.07424,0.006 3.38012,0.0399 4.91724,0.55121 5.25457,1.74775 9.11687,4.96971 11.34767,9.46633 1.62579,3.27711 2.07483,5.80059 1.88116,10.57155 l -0.13243,3.26224 0.92408,-0.14637 c 0.50824,-0.0805 2.47735,-0.32954 4.37578,-0.55341 l 3.45171,-0.40703 -0.0381,-5.39933 c -0.0209,-2.96962 -0.11919,-7.06251 -0.21837,-9.0953 -0.1526,-3.12803 -0.25042,-3.88364 -0.63656,-4.91724 l -0.45624,-1.22126 -2.96993,-0.0999 c -1.63346,-0.055 -3.11759,-0.17111 -3.29806,-0.2581 -0.43891,-0.21156 -0.79253,-1.33986 -0.639,-2.03887 0.16496,-0.75107 0.73073,-1.08294 2.1203,-1.24372 2.76774,-0.32024 2.70309,-1.43573 -0.23447,-4.04569 -3.11341,-2.76619 -5.32801,-4.14035 -8.06147,-5.00215 -2.37385,-0.74843 -4.06493,-0.91422 -11.27278,-1.10513 -9.18144,-0.2432 -10.34915,-0.52275 -14.07681,-3.37004 -1.96108,-1.49792 -2.91545,-1.7795 -3.57208,-1.05393 -0.43621,0.482 -0.59045,2.3867 -0.83505,10.3114 -0.17052,5.52484 -0.17978,5.61355 -0.76907,7.36844 -2.51183,7.48021 -8.28879,12.98009 -15.76588,15.00971 -1.52409,0.4137 -18.80956,0.75412 -24.37368,0.48001 -4.43599,-0.21853 -5.90466,-0.53845 -8.78227,-1.91306 -4.49465,-2.14705 -7.47263,-4.81677 -9.92569,-8.89828 -2.57961,-4.29208 -3.27358,-8.12224 -3.27454,-18.07285 l -4.7e-4,-4.86903 h -3.45704 c -4.08171,0 -5.87693,-0.21388 -8.15372,-0.97141 -4.23475,-1.40899 -7.39305,-3.61704 -10.44446,-7.30198 -2.02318,-2.44323 -2.87425,-3.83262 -2.95697,-4.82728 -0.0402,-0.48385 0.003,-0.99109 0.0953,-1.1272 0.43256,-0.63523 2.12619,-0.67067 36.00475,-0.75337 18.56018,-0.0453 33.80411,-0.14237 33.8754,-0.21569 0.0713,-0.0733 0.18966,-0.46003 0.26305,-0.85936 l 0.13344,-0.72607 -2.19139,-1.03513 c -4.31294,-2.03727 -8.86376,-3.57294 -12.12228,-4.09066 -2.69765,-0.42861 -16.09734,-0.63182 -42.4268,-0.64342 l -22.46858,-0.01 -0.96063,0.79159 c -1.5115,1.24551 -1.68403,1.63379 -1.82177,4.0999 -0.14096,2.52364 0.1158,2.0313 -3.58334,6.87133 -5.02252,6.57156 -8.73842,12.20756 -11.08416,16.81163 -1.38534,2.71906 -1.58973,3.48835 -1.00679,3.78933 0.1856,0.0958 1.85601,0.23248 3.71203,0.30367 2.81631,0.10802 3.45407,0.18724 3.85507,0.47888 0.64925,0.47218 0.89489,1.38213 0.57898,2.14479 -0.4452,1.07482 -0.90694,1.17325 -6.07585,1.29531 l -4.68769,0.1107 0.0906,7.1536 c 0.10299,8.1267 0.26796,10.19978 0.91363,11.48115 0.86037,1.70747 2.22526,3.7451 2.32217,3.46674 0.0524,-0.15059 0.27648,-1.25478 0.49791,-2.45376 0.55925,-3.0281 1.21398,-5.17733 2.14281,-7.03395 2.26217,-4.52182 5.90776,-7.65679 10.81439,-9.29966 1.94298,-0.65056 2.44476,-0.73959 4.64148,-0.82353 2.85305,-0.10902 4.65685,0.13011 7.17867,0.95171 2.68659,0.87528 4.10538,1.82322 6.85647,4.58102 2.61416,2.62055 3.5192,4.01879 4.54164,7.01659 1.23782,3.62932 1.32792,6.60855 0.34672,11.46399 l -0.12664,0.6267 h 38.49429 c 23.73921,0 38.49429,-0.0691 38.49429,-0.18022 z m -16.88066,-11.65613 c 1.70616,-0.39271 4.8463,-1.92548 6.46768,-3.15701 3.94914,-2.99962 6.66052,-7.59619 7.13725,-12.09968 0.10105,-0.95452 0.18522,-4.47628 0.18706,-7.82613 l 0.003,-6.09064 -18.83314,-0.12823 c -10.35822,-0.0705 -22.77666,-0.12822 -27.59651,-0.12822 h -8.76338 l 0.099,6.89378 c 0.0851,5.92806 0.15375,7.15517 0.49009,8.75973 0.75333,3.59382 1.79298,5.51872 4.51935,8.3675 3.8191,3.99058 6.64047,5.37506 11.56532,5.67522 1.40578,0.0857 7.2418,0.13032 12.96895,0.0992 8.71775,-0.0474 10.63147,-0.10689 11.75504,-0.3655 z M 84.24077,129.50711 v -3.66383 h -8.27926 c -4.77534,0 -8.48365,0.0777 -8.76218,0.18361 -1.9363,0.73618 -0.15554,2.95826 4.02521,5.02277 3.43614,1.69681 5.14913,2.04632 10.26836,2.0951 l 2.74787,0.0262 z m 60.1157,3.31959 c 0.2923,-0.16697 0.43387,-0.42922 0.43387,-0.80376 0,-0.46153 -0.38479,-0.914 -2.26579,-2.66436 -1.24618,-1.15962 -2.6234,-2.42496 -3.06049,-2.81185 l -0.7947,-0.70345 H 113.47981 88.29027 v 3.67999 3.67998 l 27.81616,-0.0644 c 22.2118,-0.0514 27.90358,-0.1143 28.25004,-0.31219 z M 53.99197,99.742058 c -0.23481,-0.24994 -0.47604,-0.75712 -0.53608,-1.12708 -0.0919,-0.56611 -0.011,-0.78442 0.51046,-1.37835 l 0.61962,-0.7057 20.55651,0.0491 20.55651,0.0491 0.44155,0.65523 c 0.57676,0.85586 0.55858,1.58651 -0.0577,2.31889 l -0.49922,0.593292 H 75.00124 54.41886 Z m 24.24246,-8.01235 c -0.8524,-0.076 -1.41409,-0.23405 -1.67636,-0.47174 -0.81455,-0.7382 -0.70037,-2.24085 0.21365,-2.81166 0.30011,-0.18742 1.56517,-0.31067 4.2849,-0.41746 4.68272,-0.18386 16.77271,-0.18788 20.31802,-0.007 l 2.57498,0.13156 0.5795,0.64856 c 0.48461,0.54238 0.56146,0.75967 0.46938,1.32711 -0.0606,0.3732 -0.34655,0.92533 -0.63551,1.22695 l -0.5254,0.54839 -12.16061,-0.0303 c -6.68834,-0.0167 -12.73749,-0.0818 -13.44255,-0.14462 z"
       id="path153" />
  </g>
</svg>
