<?xml version="1.0" encoding="UTF-8" standalone="no"?>
<!-- Created with Inkscape (http://www.inkscape.org/) -->

<svg
   width="80px"
   height="80px"
   viewBox="0 0 192.83302 192.83302"
   version="1.1"
   id="svg5"
   sodipodi:docname="carring tractor.svg"
   inkscape:version="1.1.1 (3bf5ae0d25, 2021-09-20)"
   xmlns:inkscape="http://www.inkscape.org/namespaces/inkscape"
   xmlns:sodipodi="http://sodipodi.sourceforge.net/DTD/sodipodi-0.dtd"
   xmlns="http://www.w3.org/2000/svg"
   xmlns:svg="http://www.w3.org/2000/svg">
  <sodipodi:namedview
     id="namedview7"
     pagecolor="#ffffff"
     bordercolor="#666666"
     borderopacity="1.0"
     inkscape:pageshadow="2"
     inkscape:pageopacity="0.0"
     inkscape:pagecheckerboard="0"
     inkscape:document-units="mm"
     showgrid="false"
     inkscape:zoom="0.38425619"
     inkscape:cx="385.1597"
     inkscape:cy="258.94183"
     inkscape:window-width="1440"
     inkscape:window-height="837"
     inkscape:window-x="-8"
     inkscape:window-y="-8"
     inkscape:window-maximized="1"
     inkscape:current-layer="layer1" />
  <defs
     id="defs2" />
  <g
     inkscape:label="Layer 1"
     inkscape:groupmode="layer"
     id="layer1"
     transform="translate(-12.158902,-41.372017)">
    <g
       id="g4992"
       transform="matrix(0.66264372,0,0,0.66264372,61.371583,52.361417)">
      <path
         id="path3754"
         style="fill:#000000;stroke-width:1.1222"
         d="M 435.98633,94.886719 314.25,95.181641 l -121.73633,0.294921 -4.0664,2.78711 c -6.64097,4.550768 -8.67383,9.404108 -8.67383,20.707028 0,11.00194 1.18307,14.1962 7.23047,19.50586 2.83324,2.48766 5.59635,3.70775 9.5957,4.23828 l 5.61719,0.7461 v 79.51172 79.51367 l -5.89063,2.98047 c -7.72909,3.90992 -17.69341,10.54649 -26.3164,17.53125 -13.21735,10.70626 -13.61621,17.97178 -1.66602,30.29883 l 5.16211,5.32617 -4.19727,4.29883 c -5.54354,5.67711 -6.95759,10.81644 -4.73632,17.2207 1.64035,4.72943 1.58852,5.11312 -1.93555,13.98242 -3.25871,8.20146 -4.07671,9.33267 -8.11328,11.22266 -2.46883,1.15593 -5.62496,3.81684 -7.01367,5.91406 -2.40855,3.63715 -2.52539,4.85631 -2.52539,26.39062 0,26.27313 0.65026,28.63612 9.06054,32.9336 2.73181,1.39589 5.42642,3.66921 5.98828,5.05078 0.56187,1.38157 2.26594,5.39913 3.78516,8.92773 2.68131,6.22776 2.70759,6.55074 0.91016,11.04297 -3.51062,8.77383 -2.33323,10.88948 16.58984,29.79883 18.94579,18.93207 20.69245,19.90042 29.9043,16.58789 4.9336,-1.77411 5.31155,-1.75382 9.56836,0.49024 l 4.43164,2.33593 c -7.80635,3.12254 1.74278,17.11943 18.8989,14.92034 9.36695,-1.20066 23.70584,-2.8592 36.14261,1.79457 0,0 28.65873,2.78983 36.25536,-18.94538 4.54485,-2.01721 5.24027,-2.049 9.91211,-0.46289 8.75056,2.9709 11.14574,1.59237 29.92969,-17.23633 15.67181,-15.70911 16.7076,-17.01449 17.23828,-21.72265 0.38219,-3.3908 -0.0299,-6.15774 -1.27344,-8.5625 -1.67017,-3.22942 -1.67827,-3.85956 -0.0957,-6.91992 l 1.74023,-3.36524 h 78.95313 78.95312 l 1.3418,5.32617 c 5.00205,19.86505 17.25324,38.98445 33.12695,51.69727 l 3.50196,2.80469 c 31.56591,20.79427 67.08514,28.20644 109.09765,0.76953 l 6.35547,-5.17578 c 9.64233,-7.85458 18.12812,-18.8517 24.14649,-31.29492 7.75982,-16.04387 9.48127,-23.75076 9.40039,-42.08204 -0.0577,-13.07784 -0.47716,-16.50313 -3.0625,-25.03515 -4.74339,-15.65382 -12.06633,-28.44089 -22.43164,-39.17188 l -5.10938,-5.29101 -0.33789,-46.89063 c -0.32965,-45.78062 -0.39627,-47.00213 -2.79687,-51.48828 -3.17636,-5.93597 -9.29606,-11.26481 -14.63672,-12.74805 -2.32475,-0.64561 -15.76617,-2.43915 -29.8711,-3.98437 -14.10497,-1.54518 -26.09853,-3.08922 -26.65234,-3.43164 -0.55378,-0.34224 -1.00781,-4.4657 -1.00781,-9.16406 0,-10.08681 -1.5504,-12.64649 -7.66016,-12.64649 -6.45978,0 -8.05078,2.38842 -8.05078,12.08789 v 8.37305 l -7.57422,-0.72656 c -4.16617,-0.39965 -9.46866,-1.00763 -11.7832,-1.35157 l -4.20703,-0.625 v -34.1289 -34.12891 h 11.10156 c 12.99424,0 12.46289,-0.53621 12.46289,12.62891 0,10.66417 1.46508,13.18164 7.66211,13.18164 7.08344,0 8.04883,-1.98248 8.04883,-16.50195 0,-14.30582 -1.01887,-17.5131 -7.01172,-22.06055 -2.00659,-1.52258 -5.41595,-3.22131 -7.57617,-3.77539 l -3.92774,-1.00781 -0.30273,-24.25586 -0.30078,-24.25391 6.62304,-5.09766 c 7.06039,-5.43293 8.81435,-8.90234 6.76758,-13.39453 -1.22903,-2.69742 -5.23251,-5.23828 -8.25391,-5.23828 -2.66524,0 -19.70725,13.38316 -20.84179,16.36719 -0.59732,1.571 -1.08594,14.94198 -1.08594,29.71484 v 26.86133 l -3.08594,0.0176 c -5.08754,0.0304 -11.63135,4.53339 -14.5039,9.97851 -2.56456,4.86169 -2.60938,5.52509 -2.60938,38.9961 0,31.2774 -0.15483,34.05078 -1.9043,34.05078 -2.4065,0 -84.69325,-8.95867 -86.1289,-9.37695 -0.58417,-0.1702 -9.24065,-27.04118 -19.23633,-59.71289 l -18.17383,-59.40235 5.0625,-1.32031 c 5.365,-1.3997 10.69398,-5.67903 13.31055,-10.6875 1.00966,-1.93262 1.58398,-6.57166 1.58398,-12.80664 0,-12.18145 -2.78455,-17.9442 -10.46875,-21.664064 z M 197.16797,112.31055 h 118.39062 118.39258 v 6.73242 6.73437 l -118.14453,0.28516 c -99.67612,0.24104 -118.23824,0.0425 -118.74023,-1.26562 -0.32731,-0.85277 -0.43929,-4.00996 -0.24805,-7.01758 z m 93.70312,30.85937 h 61.44532 61.44726 l 18.08008,59.19727 18.08203,59.19531 -52.13281,0.56055 -52.13477,0.5625 -2.14453,2.64843 c -2.91628,3.60269 -2.69258,7.56527 0.61133,10.86914 l 2.75391,2.75391 h 53.28125 53.27929 l 0.35547,26.0918 0.35547,26.08984 3.29688,5.95313 c 4.11031,7.41959 10.27828,13.06821 18.45117,16.90039 l 6.30664,2.95703 94.54687,0.31836 94.54493,0.3164 v 13.42969 c 0,7.38652 -0.15843,13.42969 -0.35157,13.42969 -0.19309,0 -2.84621,-1.20235 -5.89648,-2.67383 -24.69952,-11.91545 -57.21898,-11.65046 -81.80469,0.66797 -14.06695,7.0481 -27.76645,18.90789 -36.34961,31.4707 -8.30502,12.15568 -15.85088,33.02811 -15.88867,43.93946 -0.008,2.52442 -0.31912,5.72648 -0.69141,7.11523 l -0.67773,2.52344 h -55.26563 -55.26757 l 0.52343,-20.48047 c 0.61648,-24.10673 -0.97753,-36.38701 -7.10547,-54.70313 -13.01741,-38.90834 -41.44037,-71.26246 -78.44531,-89.29296 -20.95091,-10.20824 -42.30183,-15.06641 -66.21094,-15.06641 -14.33593,0 -30.36195,2.11749 -41.74218,5.51562 -3.82458,1.14206 -7.23255,1.79675 -7.57422,1.45508 -0.34175,-0.34159 -0.6211,-4.07145 -0.6211,-8.28906 v -7.66797 h 47.48243 c 46.23314,0 47.54611,-0.0611 49.9375,-2.28906 3.56073,-3.31733 3.31985,-9.2141 -0.5,-12.21875 -2.51328,-1.97703 -4.53377,-2.32617 -13.4668,-2.32617 h -10.50977 v -59.47657 z m -72.94336,0.002 h 28.05469 28.05469 v 59.47656 59.47656 h -28.05469 -28.05469 v -59.47656 z m 252.77539,136.91406 c 6.45718,0.0317 194.42494,21.53812 196.10547,22.4375 3.85951,2.06555 4.48829,5.12209 4.48829,21.80859 v 16.3457 l -91.74024,-0.0488 c -75.79816,-0.0407 -92.51974,-0.32281 -96.22852,-1.625 -6.09686,-2.14061 -11.35346,-8.4169 -12.83398,-15.32032 -1.76171,-8.21412 -1.59222,-43.60521 0.20898,-43.59765 z M 268.15234,304.8184 c 7.2105,-0.10349 14.00435,0.20602 19.07813,0.99414 30.10666,4.67645 54.63791,17.12428 76.16406,38.65039 23.35775,23.35778 36.24198,50.60987 39.65625,83.88086 1.10551,10.7732 0.0677,32.59685 -1.7793,37.41016 -0.47675,1.24236 -2.25208,1.73242 -6.27539,1.73242 -4.90733,0 -5.50854,-0.24532 -4.79297,-1.96289 2.30261,-5.52665 2.97133,-13.43872 2.61719,-30.94727 -0.48234,-23.8343 -1.16073,-25.43821 -13.06836,-30.94336 -0.80024,-0.36994 -3.16529,-4.92655 -5.25586,-10.12695 -3.41189,-8.48723 -3.63556,-9.69015 -2.1914,-11.75195 1.91327,-2.73154 2.10986,-9.93575 0.36523,-13.375 -1.78016,-3.50937 -30.15188,-32.03191 -33.76953,-33.94922 -3.91015,-2.07292 -10.97347,-2.06031 -13.95117,0.0254 -2.11238,1.47953 -3.25534,1.24935 -12.15234,-2.46094 -5.40106,-2.25233 -10.06395,-4.88142 -10.36329,-5.8418 -3.31755,-10.64685 -5.22653,-11.27747 -34.24804,-11.28125 l -24.36914,-0.004 -3.88868,3.41406 c -2.13834,1.87752 -4.19053,4.79315 -4.56054,6.47852 -0.56931,2.59207 -2.16515,3.69832 -10.36328,7.17968 -9.28056,3.94107 -9.83485,4.04208 -13.0586,2.375 -2.2182,-1.1486 -5.06786,-1.55008 -8.35351,-1.17968 -4.23606,0.47746 -5.98293,1.54744 -11.60547,7.11132 l -6.61914,6.55079 -4.00391,-4.00586 -4.00586,-4.00391 5.70899,-4.78125 c 13.1275,-10.99094 32.40014,-20.52581 51.61132,-25.53516 8.28447,-2.16016 21.45712,-3.47985 33.47461,-3.65234 z m 0.67774,25.75976 h 17.30859 l 0.68164,2.71876 c 1.21138,4.82653 6.08065,9.37486 12.21875,11.4121 3.22213,1.06942 8.88854,3.37782 12.5918,5.12891 7.42923,3.51288 14.57437,4.13134 18.02148,1.56055 2.02795,-1.51238 3.04119,-0.76828 14.66993,10.78906 12.26982,12.19453 12.46473,12.46656 10.94921,15.37109 -2.37913,4.55978 -1.85819,10.17219 1.62891,17.54688 1.75109,3.70329 4.05754,9.36967 5.12695,12.5918 2.03724,6.1381 6.58558,11.00737 11.41211,12.21875 l 2.71875,0.68164 v 17.2207 17.21875 l -5.03515,2.22851 c -3.5616,1.5755 -5.51215,3.31398 -6.66797,5.94336 -11.06835,25.17971 -12.04408,28.71951 -9.56641,34.70118 1.41362,3.41276 1.39178,3.44388 -10.63086,15.5039 l -12.04687,12.08399 -4.95899,-1.78321 c -5.53765,-1.99132 -4.85332,-2.15803 -23.47656,5.72266 -12.81676,5.42358 -13.63901,5.99357 -15.8418,10.98633 l -1.98437,4.49414 h -17.16211 -17.16406 l -1.54297,-3.64649 c -2.23812,-5.2885 -4.54079,-6.92261 -17.02344,-12.08007 -17.76238,-7.33886 -17.77338,-7.34096 -23.2207,-5.20118 l -4.77539,1.87696 -12.09571,-12.09571 -12.0957,-12.0957 1.87695,-4.77539 c 2.13479,-5.43466 2.15359,-5.35206 -5.16211,-23.24219 -4.72278,-11.54929 -9.2719,-17.39258 -13.53906,-17.39258 -2.12693,0 -2.22656,-0.79584 -2.22656,-17.73046 v -17.73047 l 3.76562,-1.36133 c 5.17565,-1.87155 6.55236,-3.73448 11.34571,-15.36133 8.44301,-20.47948 8.08754,-19.04776 6.09179,-24.59765 l -1.7832,-4.95899 12.08399,-12.04687 c 12.05998,-12.02264 12.09114,-12.04253 15.5039,-10.62891 4.79067,1.98433 10.39825,1.00008 21.44531,-3.76367 16.99888,-7.33028 18.43084,-8.40877 20.64258,-15.54297 0.54539,-1.75899 2.41259,-1.96485 17.91602,-1.96485 z m -0.94141,38.54493 c -7.63176,0.12587 -15.2649,1.25607 -21.30273,3.36523 -4.91414,1.71666 -12.33286,5.38137 -16.48633,8.14258 -19.25015,12.79748 -30.19067,33.23387 -30.27344,56.54883 -0.0686,19.31297 5.64337,34.13011 18.43945,47.83203 11.7134,12.54259 25.22124,19.5658 41.71094,21.6914 32.26042,4.15862 63.06869,-14.92331 74.29688,-46.01953 2.61214,-7.23424 3.02452,-10.13988 3.09179,-21.8125 0.0629,-10.91365 -0.39275,-14.95595 -2.39843,-21.32226 -6.74503,-21.4094 -24.3106,-38.96806 -45.7793,-45.76172 -6.03596,-1.91004 -13.66707,-2.78994 -21.29883,-2.66406 z m 0.83789,16.48047 c 4.57054,-0.0387 9.19888,0.50956 13.77344,1.69336 17.10248,4.42575 32.46226,19.79289 36.92773,36.9414 6.97459,26.78442 -7.85095,54.95778 -33.32421,63.32422 -19.77952,6.49637 -38.13789,2.46373 -53.48829,-11.74805 -16.41426,-15.19668 -21.06661,-40.3777 -11.21875,-60.7207 8.78296,-18.14311 27.5244,-29.32258 47.33008,-29.49023 z m 355.99805,4.11914 c 21.72457,-0.0819 38.9866,7.09448 54.50977,22.66406 10.73359,10.76576 15.16788,17.76967 19.57617,30.91797 9.92133,29.59158 -0.53487,64.84196 -24.99805,84.26953 -8.72236,6.92693 -22.5719,13.45915 -33.04883,15.58789 -35.02726,7.117 -69.51463,-9.67576 -85.12109,-41.44727 -6.07408,-12.36555 -8.16343,-21.29573 -8.14453,-34.78906 0.0342,-23.87236 10.28442,-45.20915 29,-60.36328 13.68729,-11.08271 29.97885,-16.77106 48.22656,-16.83984 z m -146.44727,4.82031 c -1.87033,0 -4.36247,0.99919 -5.60937,2.24609 -2.10796,2.10811 -2.24609,3.74024 -2.24609,26.88867 -10e-6,23.90737 0.0745,24.712 2.45703,26.93165 3.13247,2.91828 6.55671,2.90642 10.29882,-0.0371 l 2.95508,-2.32618 v -24.60547 c 0,-23.11071 -0.13622,-24.74364 -2.24414,-26.85156 -1.2469,-1.2469 -3.74099,-2.24609 -5.61133,-2.24609 z m -29.46679,0.0605 c -2.0635,0.0279 -4.16635,0.92806 -5.9336,2.69531 -2.7507,2.75036 -2.7539,2.7889 -2.7539,26.42187 0,23.63297 0.004,23.67347 2.7539,26.42383 1.51499,1.51499 4.06296,2.75391 5.66211,2.75391 1.59912,0 4.14713,-1.23892 5.66211,-2.75391 2.75112,-2.75153 2.75586,-2.7802 2.75586,-26.58008 0,-22.91762 -0.0944,-23.92548 -2.44141,-26.42383 -1.61729,-1.72153 -3.64158,-2.56498 -5.70507,-2.5371 z m 58.78906,0.041 c -1.9184,0.0513 -3.7995,0.83404 -5.40234,2.33985 -2.5595,2.40548 -2.59766,2.78564 -2.59766,26.85156 v 24.41015 l 2.95703,2.32618 c 3.68636,2.89976 7.23387,2.9608 10.66602,0.18164 2.6417,-2.13782 2.64843,-2.23267 2.64843,-27.03321 0,-24.80054 -0.008,-24.89343 -2.64843,-27.03125 -1.74892,-1.41617 -3.70465,-2.09621 -5.62305,-2.04492 z m -239.18555,1.70899 c -8.32615,-0.0248 -10.48508,0.40894 -16.83594,3.38086 -8.9153,4.17199 -16.73877,11.77236 -20.95117,20.35351 -2.82633,5.75762 -3.15993,7.62596 -3.16015,17.66016 -1.9e-4,9.78024 0.37977,12.03276 2.95703,17.52929 5.20883,11.10887 14.34897,19.19684 25.98047,22.99024 2.94368,0.96019 8.36324,1.41976 14.35742,1.2168 7.80741,-0.26419 10.82641,-0.91265 15.95508,-3.42188 8.74941,-4.28069 15.94207,-11.638 20.20508,-20.66797 3.16115,-6.6957 3.55417,-8.62071 3.49218,-17.08398 -0.0979,-13.34068 -3.14922,-20.83676 -12.15039,-29.83789 -9.04286,-9.0429 -16.52258,-12.07946 -29.84961,-12.11914 z m 1.13477,16.1621 c 4.75234,0.006 14.23228,4.29776 17.60547,7.97071 11.30626,12.31086 8.22613,31.64615 -6.30078,39.55273 -13.17687,7.17173 -29.82138,1.35799 -35.60157,-12.43554 -2.2337,-5.33035 -1.91394,-15.33088 0.65039,-20.35743 4.53907,-8.89727 13.92123,-14.7418 23.64649,-14.73047 z m 354.99805,0.1836 c -3.9194,-0.0426 -7.66178,0.21985 -10.5918,0.82812 -20.10013,4.17275 -36.76214,20.10636 -41.98242,40.14844 -6.48341,24.89148 5.88416,51.45532 29.17187,62.65625 4.52001,2.17402 11.16979,4.40126 14.77735,4.94922 22.62462,3.43631 46.95149,-8.20879 56.61132,-27.09766 2.77255,-5.42131 2.68965,-8.56227 -0.31054,-11.75586 -4.57493,-4.86977 -10.31543,-3.11608 -14.78907,4.51758 -3.68734,6.29197 -9.77044,11.61839 -16.94531,14.83594 -18.73977,8.40378 -40.07119,0.67308 -49.7207,-18.02148 -4.15797,-8.05558 -4.78453,-21.09679 -1.43946,-29.96485 7.24543,-19.20812 29.64465,-29.39211 48.77344,-22.17578 7.72849,2.91557 14.96546,9.16315 20.7461,17.91211 3.54791,5.36976 4.60502,6.21736 8.13476,6.51367 3.29118,0.27629 4.50462,-0.23038 6.42969,-2.67773 2.84651,-3.61875 2.97571,-6.12305 0.55859,-10.9043 -5.82878,-11.52975 -18.87886,-22.86602 -31.29101,-27.18164 -4.57762,-1.59161 -11.60049,-2.51109 -18.13281,-2.58203 z m -0.51368,25.63476 c -15.76006,0.0643 -27.88565,12.62491 -27.91211,28.90821 -0.0131,8.46372 1.73258,13.03246 7.36914,19.27148 4.42228,4.89494 8.8197,7.67405 14.50196,9.16602 9.28221,2.43723 23.59778,-2.19667 28.97461,-9.37891 7.08865,-9.46885 8.75314,-17.25327 5.8457,-27.33984 -1.51336,-5.25014 -3.10945,-7.79128 -7.70312,-12.25782 -6.48386,-6.3044 -11.77846,-8.40693 -21.07618,-8.36914 z m 0.51953,16.8086 c 12.82205,0 17.78022,15.99611 6.9961,22.57226 -8.71389,5.31372 -18.60742,-0.54917 -18.60742,-11.02734 0,-7.08185 4.48949,-11.54492 11.61132,-11.54492 z"
         transform="matrix(0.26458333,0,0,0.26458333,12.158902,41.372017)"
         sodipodi:nodetypes="ccccsscccccscccssscsssssssccsscsssssccccscccssscccssscssscsccccssssscccccsssscccssssccsscccccccccccccccccccsccccccscccsssssccccccsssscscsscsccccccccccccsssccsscscssssscsssscsscccccscccccccssscsssssssscccccssccsscccccscccccsssccssccsssssssssssssssssssssssssssscssssssccsssscssscsssscssscssssssssccsccsscsssscsssscsssssssssssssccssssscsssssss" />
      <path
         style="fill:#000000;stroke-width:0.207649"
         d="m -42.598872,189.69028 c -5.136858,-1.13274 -9.014873,-4.822 -10.283726,-9.78317 -0.925419,-3.61835 -0.214022,-7.74306 1.853829,-10.74858 l 0.630911,-0.917 -2.122329,-0.0858 c -3.18198,-0.12866 -4.800896,-1.0597 -5.889461,-3.38705 l -0.485616,-1.03824 -0.002,-22.01651 c -0.0022,-24.20883 -0.09055,-22.56093 1.24616,-23.25217 0.762265,-0.39418 1.517287,-0.39418 2.279552,0 1.167206,0.60359 1.248188,0.90978 1.248188,4.7195 v 3.48382 h 12.355117 12.355118 v -3.48382 c 0,-3.80972 0.08098,-4.11591 1.248187,-4.7195 0.762265,-0.39418 1.517289,-0.39418 2.279554,0 1.167206,0.60359 1.248186,0.90978 1.248186,4.7195 v 3.48382 H -7.7138065 9.2095859 v -3.48382 c 0,-3.80972 0.08098,-4.11591 1.2481821,-4.7195 0.762269,-0.39418 1.517293,-0.39418 2.279561,0 1.167209,0.60359 1.248186,0.90978 1.248186,4.7195 v 3.48382 h 12.666552 12.666597 v -3.48382 c 0,-3.80972 0.08098,-4.11591 1.248186,-4.7195 0.76226,-0.39418 1.517284,-0.39418 2.279551,0 1.336705,0.69124 1.24839,-0.95666 1.246161,23.25217 l -0.0024,22.01651 -0.48562,1.03824 c -0.60051,1.28388 -1.607537,2.30542 -2.832713,2.8735 -0.732067,0.33944 -1.460133,0.45086 -3.362133,0.5145 l -2.427716,0.0812 0.708728,1.06864 c 1.577219,2.3782 2.304492,5.20002 2.116756,8.21301 -0.419452,6.73187 -5.757334,11.98548 -12.609313,12.41028 -2.309201,0.14316 -4.359814,-0.29231 -6.644765,-1.41108 -1.40289,-0.6869 -2.105849,-1.2096 -3.426215,-2.54764 -1.808098,-1.83231 -2.622031,-3.15147 -3.338199,-5.41031 l -0.464281,-1.46436 H -7.7139295 -26.752845 l -0.464276,1.46436 c -0.716173,2.25884 -1.530099,3.578 -3.338201,5.41031 -1.320586,1.33827 -2.023087,1.86059 -3.426209,2.54744 -2.853774,1.39697 -5.787182,1.79582 -8.617435,1.17172 z m 5.152804,-5.09436 c 1.619262,-0.50014 3.213039,-1.64577 4.297605,-3.08919 1.091063,-1.45207 1.537948,-2.87647 1.537948,-4.90206 0,-2.84212 -1.106144,-5.03728 -3.410938,-6.76907 -3.684703,-2.76863 -9.195967,-1.84143 -11.832515,1.99065 -2.399023,3.48686 -1.715229,8.56633 1.504688,11.17737 2.364316,1.91722 5.079872,2.46434 7.903212,1.5923 z m 65.42485,-0.37082 c 1.881799,-0.88059 3.093012,-2.07068 4.023434,-3.95327 0.740881,-1.49906 0.775515,-1.66283 0.775515,-3.66716 0,-2.00807 -0.03359,-2.16599 -0.783324,-3.68298 -2.814505,-5.69476 -10.422417,-6.34454 -14.27361,-1.21908 -1.100791,1.465 -1.548881,2.88317 -1.548881,4.90206 0,2.82702 1.116377,5.03675 3.418524,6.76656 2.361361,1.77428 5.696088,2.11374 8.388342,0.85387 z M 11.612035,173.13567 c 0.273265,-1.07126 1.255878,-3.20595 1.963632,-4.26593 l 0.450602,-0.67486 H -7.7138355 -29.453941 l 0.451882,0.67486 c 0.665974,0.99459 1.804165,3.47379 1.978112,4.30872 0.08328,0.39972 0.192964,0.79734 0.243745,0.88359 0.05078,0.0862 8.653722,0.13297 19.1176425,0.10383 l 19.0253135,-0.053 z M 38.903371,163.0082 c 0.265456,-0.16766 0.320268,-1.28704 0.370959,-7.576 l 0.05949,-7.37928 H -7.4023655 -54.138543 l 0.05948,7.37928 c 0.0507,6.28896 0.105506,7.40834 0.370959,7.576 0.423019,0.2672 92.188451,0.2672 92.611467,0 z m -68.316529,-21.70387 v -1.76502 h -12.355118 -12.355117 v 1.76502 1.76502 h 12.355117 12.355118 z m 38.6227139,0 v -1.76502 H -7.7138355 -24.637231 v 1.76502 1.76502 H -7.7138355 9.2095559 Z m 30.1091161,0 v -1.76502 H 26.652083 13.98549 v 1.76502 1.76502 h 12.666593 12.666589 z m -68.73183,-8.20213 v -1.45355 h -12.355118 -12.355117 v 1.45355 1.45354 h 12.355117 12.355118 z m 38.6227139,0 v -1.45355 H -7.7138355 -24.637231 v 1.45355 1.45354 H -7.7138355 9.2095559 Z m 30.1091161,0 v -1.45355 H 26.652083 13.98549 v 1.45355 1.45354 h 12.666593 12.666589 z"
         id="path3555" />
      <rect
         style="fill:#000000;stroke:#ff6347;stroke-width:0.0264583"
         id="rect4889"
         width="15.639523"
         height="4.6570139"
         x="39.33382"
         y="148.05292"
         ry="0.28008789" />
    </g>
  </g>
</svg>
