<?xml version="1.0" encoding="UTF-8" standalone="no"?>
<!-- Created with Inkscape (http://www.inkscape.org/) -->

<svg
   width="80px"
   height="80px"
   viewBox="0 0 192.83302 192.83302"
   version="1.1"
   id="svg5"
   inkscape:version="1.1.1 (3bf5ae0d25, 2021-09-20)"
   sodipodi:docname="delivery.svg"
   inkscape:export-filename="C:\Users\Administrator\Desktop\delivery.png"
   inkscape:export-xdpi="1200"
   inkscape:export-ydpi="1200"
   xmlns:inkscape="http://www.inkscape.org/namespaces/inkscape"
   xmlns:sodipodi="http://sodipodi.sourceforge.net/DTD/sodipodi-0.dtd"
   xmlns="http://www.w3.org/2000/svg"
   xmlns:svg="http://www.w3.org/2000/svg">
  <sodipodi:namedview
     id="namedview7"
     pagecolor="#ffffff"
     bordercolor="#666666"
     borderopacity="1.0"
     inkscape:pageshadow="2"
     inkscape:pageopacity="0.0"
     inkscape:pagecheckerboard="0"
     inkscape:document-units="mm"
     showgrid="false"
     inkscape:zoom="6.148099"
     inkscape:cx="53.349824"
     inkscape:cy="42.533473"
     inkscape:window-width="1440"
     inkscape:window-height="837"
     inkscape:window-x="-8"
     inkscape:window-y="-8"
     inkscape:window-maximized="1"
     inkscape:current-layer="layer1" />
  <defs
     id="defs2" />
  <g
     inkscape:label="Layer 1"
     inkscape:groupmode="layer"
     id="layer1"
     transform="translate(-12.158902,-41.372017)">
    <path
       style="fill:#000000;stroke-width:0.192833"
       d="m 74.467929,184.74895 c -0.21212,-0.0488 -0.86293,-0.18158 -1.44625,-0.29501 -1.45484,-0.2829 -4.25526,-1.67608 -5.88141,-2.92594 -2.54626,-1.95706 -4.28834,-4.41252 -5.6094,-7.90643 l -0.70985,-1.87741 -0.79345,-0.0139 c -7.19099,-0.12626 -13.23476,-0.36122 -13.65582,-0.53088 -0.66548,-0.26814 -1.11802,-1.14396 -1.11802,-2.16372 0,-1.06656 0.49894,-1.86303 1.34229,-2.14272 0.43993,-0.1459 3.0792,-0.26637 7.42685,-0.33899 l 6.74439,-0.11266 0.69717,-1.92833 c 0.38344,-1.06058 0.89511,-2.31882 1.13704,-2.79608 1.75162,-3.45546 5.2263,-6.49064 9.09347,-7.94328 1.48339,-0.55721 1.85089,-0.614 4.47869,-0.69208 3.22294,-0.0958 4.44244,0.0778 6.49594,0.92461 2.36375,0.97473 4.37214,2.29552 5.7543,3.78421 1.62281,1.74789 3.16927,4.22411 3.84016,6.14894 0.35777,1.02645 0.68802,1.6231 1.04518,1.88825 0.89515,0.66457 3.88799,0.77056 17.362361,0.61486 l 12.39028,-0.14317 0.82619,-2.26201 c 1.02291,-2.80063 2.2222,-4.66578 4.2391,-6.59271 1.7733,-1.69421 3.54966,-2.8079 5.84086,-3.66196 1.48211,-0.55246 1.88127,-0.61504 4.45432,-0.69834 3.44151,-0.11143 5.04026,0.18278 7.58666,1.39611 2.01797,0.96155 2.60847,1.38211 4.41427,3.14392 1.81852,1.77421 2.95391,3.57965 4.0695,6.47109 l 0.94438,2.4477 6.08458,-0.0509 6.08457,-0.0509 0.0496,-12.97411 0.0496,-12.9741 -3.86895,-4.97588 -3.86895,-4.97588 -18.6978,-0.12524 -18.69779,-0.12524 -0.55845,-0.41288 c -0.30715,-0.22708 -0.62439,-0.59717 -0.70497,-0.82241 -0.0806,-0.22524 -0.18004,-8.19757 -0.22101,-17.71629 l -0.0745,-17.306762 H 84.186319 c -36.36346,0 -36.83618,-0.0048 -37.57764,-0.383084 -1.03526,-0.528151 -1.35489,-1.056992 -1.35489,-2.241706 0,-1.714669 0.16684,-1.806124 3.66632,-2.009682 1.64253,-0.09554 19.25998,-0.176558 39.14989,-0.180035 l 36.163481,-0.0063 0.63673,0.531569 c 0.78637,0.656489 0.96718,1.464806 0.98106,4.385673 0.006,1.16664 0.0643,2.572817 0.13064,3.124838 l 0.12057,1.00368 11.11028,0.0569 c 8.06747,0.0413 11.21827,0.11898 11.50459,0.28356 0.48196,0.27702 2.92898,4.941019 9.54305,18.188889 l 5.05431,10.12373 3.21698,4.14591 c 1.76934,2.28025 3.77625,4.92683 4.45981,5.88128 l 1.24283,1.73537 0.16807,9.15969 c 0.0993,5.41043 0.0957,11.85879 -0.009,15.75373 -0.16449,6.13182 -0.2033,6.62334 -0.55374,7.01232 -0.20727,0.23007 -0.59379,0.51457 -0.85893,0.63222 -0.31324,0.139 -3.17632,0.24944 -8.1747,0.31533 l -7.69262,0.10141 -0.41861,1.45115 c -1.69063,5.86071 -6.97696,10.69446 -12.66924,11.5846 -0.82719,0.12936 -2.41838,0.17931 -3.82645,0.12012 -2.53197,-0.10642 -3.96096,-0.47917 -6.26707,-1.63477 -3.87111,-1.9398 -6.68399,-5.25522 -8.0807,-9.52433 l -0.65327,-1.99677 -9.8446,-0.05 c -5.41453,-0.0275 -11.95583,0.0187 -14.536231,0.10255 -5.79213,0.18827 -5.69107,0.14823 -6.78762,2.68947 -1.40656,3.25969 -3.07229,5.53435 -5.2725,7.19996 -1.5362,1.16293 -3.92868,2.37143 -5.54017,2.79847 -1.11597,0.29574 -5.91673,0.55231 -6.74915,0.36071 z m 4.78897,-4.99892 c 3.79259,-0.80357 6.973,-3.64162 8.25294,-7.36453 0.59658,-1.73527 0.64256,-4.9964 0.0933,-6.61916 -0.6461,-1.90895 -1.5288,-3.34015 -2.91407,-4.72488 -2.15177,-2.15091 -4.65675,-3.18404 -7.70663,-3.17843 -3.24804,0.006 -5.51695,0.95705 -7.84568,3.28874 -2.43992,2.44302 -3.38245,4.91177 -3.20891,8.40498 0.15103,3.0401 1.42687,5.68668 3.73168,7.74092 2.67088,2.38052 5.96443,3.2221 9.59736,2.45236 z m 63.604801,-0.34226 c 1.75289,-0.64099 3.01416,-1.48768 4.36127,-2.92774 2.15504,-2.30375 2.9571,-4.31599 2.96275,-7.43313 0.004,-2.4101 -0.19171,-3.25941 -1.20261,-5.20889 -1.40404,-2.70765 -3.42988,-4.50702 -6.11915,-5.4351 -1.85865,-0.64142 -5.34962,-0.64142 -7.20827,0 -5.58877,1.92871 -8.8444,8.14108 -7.14314,13.6305 1.17969,3.80649 4.42277,6.86378 8.19233,7.72303 1.76621,0.40259 4.53044,0.24605 6.15682,-0.34867 z m 11.51701,-54.23491 c 0.40535,-0.23685 0.78407,-0.68413 0.99019,-1.16948 l 0.33379,-0.78594 -0.81388,-1.91373 c -0.44764,-1.05254 -2.65062,-5.57995 -4.89552,-10.06091 l -4.08162,-8.1472 H 135.8848 125.85793 v 11.30267 11.30267 l 13.93218,-0.0723 c 13.48853,-0.07 13.95309,-0.0845 14.5886,-0.45581 z M 41.264569,148.19877 c -1.77257,-0.51285 -2.09299,-3.12791 -0.51032,-4.16492 0.49366,-0.32345 1.2532,-0.34689 11.24015,-0.34689 5.89089,0 11.11872,0.0698 11.61739,0.15504 0.73748,0.12612 0.98037,0.2743 1.30162,0.7941 0.5271,0.85286 0.51712,2.02528 -0.0231,2.71204 -0.84173,1.07009 -0.77822,1.06471 -12.35095,1.04583 -5.87395,-0.01 -10.93616,-0.0972 -11.2748,-0.1952 z m -8.19055,-18.45556 c -0.65594,-0.61185 -0.79102,-0.86419 -0.80793,-1.50926 -0.024,-0.91527 0.41727,-1.67152 1.28351,-2.1997 0.60023,-0.36599 1.13086,-0.37576 20.4394,-0.37646 21.57015,-7.7e-4 20.43324,-0.0576 21.31632,1.06506 0.8809,1.11989 0.59957,2.60046 -0.63964,3.36634 -0.62004,0.3832 -0.91314,0.3887 -20.71649,0.3887 h -20.08755 z m 8.22663,-17.33176 c -0.84907,-0.21944 -1.63908,-1.34525 -1.63908,-2.33576 0,-0.30776 0.19824,-0.85441 0.44054,-1.21479 0.43248,-0.64323 0.4722,-0.65749 2.16937,-0.77943 0.95086,-0.0683 10.172,-0.13339 20.49142,-0.14462 20.6054,-0.0224 19.56007,-0.0809 20.18642,1.13027 0.52598,1.01714 0.27429,2.13905 -0.67206,2.99567 -0.41918,0.37944 -0.72672,0.38569 -20.50825,0.41678 -11.04548,0.0174 -20.25624,-0.0133 -20.46836,-0.0681 z"
       id="path37" />
  </g>
</svg>
