<?xml version="1.0" encoding="UTF-8" standalone="no"?>
<!-- Created with Inkscape (http://www.inkscape.org/) -->

<svg
   width="80px"
   height="80px"
   viewBox="0 0 192.83302 192.83302"
   version="1.1"
   id="svg5"
   sodipodi:docname="electric autoriksha.svg"
   inkscape:version="1.1.1 (3bf5ae0d25, 2021-09-20)"
   xmlns:inkscape="http://www.inkscape.org/namespaces/inkscape"
   xmlns:sodipodi="http://sodipodi.sourceforge.net/DTD/sodipodi-0.dtd"
   xmlns="http://www.w3.org/2000/svg"
   xmlns:svg="http://www.w3.org/2000/svg">
  <sodipodi:namedview
     id="namedview7"
     pagecolor="#ffffff"
     bordercolor="#666666"
     borderopacity="1.0"
     inkscape:pageshadow="2"
     inkscape:pageopacity="0.0"
     inkscape:pagecheckerboard="0"
     inkscape:document-units="mm"
     showgrid="false"
     inkscape:zoom="0.54342031"
     inkscape:cx="241.0657"
     inkscape:cy="405.76326"
     inkscape:window-width="1440"
     inkscape:window-height="837"
     inkscape:window-x="-8"
     inkscape:window-y="-8"
     inkscape:window-maximized="1"
     inkscape:current-layer="layer1" />
  <defs
     id="defs2" />
  <g
     inkscape:label="Layer 1"
     inkscape:groupmode="layer"
     id="layer1"
     transform="translate(-12.158902,-41.372017)">
    <path
       style="fill:#000000;stroke-width:0.312126"
       d="m 54.658525,216.52812 c -7.713452,-1.69317 -13.552448,-7.3537 -15.415096,-14.94395 l -0.547365,-2.23049 -2.394087,-0.1963 c -3.147591,-0.2581 -5.132278,-1.51996 -6.564115,-4.17346 -0.631843,-1.17094 -0.680198,-1.75273 -0.778372,-9.3638 -0.121909,-9.45031 0.169982,-12.35623 1.708652,-17.01088 1.211247,-3.66418 2.580844,-6.28388 4.464479,-8.53943 0.696583,-0.83412 1.266515,-1.64269 1.266515,-1.79682 0,-0.67675 2.444873,-6.4108 4.424453,-10.37684 5.202224,-10.42249 10.966783,-18.41622 18.713761,-25.95038 9.872964,-9.60175 20.597701,-15.74626 32.920064,-18.86085 7.972046,-2.01501 13.745126,-2.50322 29.713946,-2.5128 8.79483,-0.005 10.86346,0.075 11.58889,0.4502 1.43334,0.74123 1.6761,2.06522 0.62392,3.40286 l -0.6469,0.8224 -11.60406,6.2e-4 c -19.00742,0.001 -25.223525,0.79936 -35.520322,4.56063 -17.230584,6.2941 -32.889174,21.69315 -42.405868,41.70299 -0.83906,1.76421 -1.808664,3.93309 -2.154675,4.81972 l -0.629113,1.61207 5.163103,0.10464 c 6.622843,0.13421 6.451761,-0.008 6.302118,5.2417 -0.08865,3.11021 -0.214123,3.83704 -0.918211,5.31916 -1.055988,2.22288 -2.777735,3.91767 -5.114877,5.03477 -1.842551,0.8807 -1.961491,0.89514 -7.373981,0.89539 l -5.501238,3.8e-4 -0.195074,0.97539 c -0.107351,0.53647 -0.195073,4.62053 -0.195073,9.07567 v 8.10029 l 0.912361,0.91236 c 0.790286,0.79029 1.145314,0.91237 2.653076,0.91237 1.517247,0 1.740704,-0.0781 1.740704,-0.60814 0,-1.51483 1.679029,-5.75911 3.145907,-7.95227 3.760687,-5.62269 9.873153,-8.91866 16.539887,-8.91866 7.974674,0 14.920201,4.4306 18.224396,11.62547 0.571887,1.24528 1.205019,3.07177 1.40696,4.05888 l 0.367163,1.79472 h 12.955124 12.955133 l 0.91236,0.91237 c 1.07864,1.07864 1.14611,1.82758 0.26547,2.94712 l -0.64691,0.82241 H 91.844017 78.666407 l -0.525981,2.26292 c -1.301648,5.60004 -5.419357,10.80335 -10.528656,13.30442 -4.287668,2.09889 -8.692392,2.69844 -12.953245,1.76316 z m 7.63439,-4.70777 c 7.341278,-1.66975 12.604924,-9.31045 11.549247,-16.76487 -0.535615,-3.78213 -1.769058,-6.28942 -4.37697,-8.89732 -3.046248,-3.04625 -6.427272,-4.43961 -10.772797,-4.43961 -3.218374,0 -5.962015,0.81191 -8.523296,2.52227 -2.460204,1.64286 -3.912418,3.33883 -5.263029,6.14643 -2.920489,6.07101 -1.695882,12.82722 3.172335,17.50192 3.970337,3.81251 8.828705,5.15615 14.21451,3.93118 z m -6.541947,-6.99024 c -3.436418,-1.18037 -5.973204,-5.20755 -5.494849,-8.72313 0.309341,-2.27344 1.630142,-4.64088 3.214327,-5.76145 1.875486,-1.32661 3.032523,-1.70895 5.245722,-1.73342 6.116728,-0.0676 10.195113,6.49108 7.483165,12.03411 -1.006512,2.05722 -2.916282,3.72848 -4.951139,4.33278 -2.039634,0.6057 -3.408291,0.56863 -5.497226,-0.14889 z m 5.025896,-4.78556 c 2.068183,-1.39175 2.190191,-4.34201 0.247172,-5.97695 -2.315166,-1.94809 -6.209447,-0.11065 -6.209447,2.92978 0,1.80989 2.037527,3.75742 3.933453,3.7597 0.532538,6.3e-4 1.445508,-0.31999 2.028822,-0.71253 z M 44.982607,169.4811 c 2.145583,-1.15485 3.277327,-3.02582 3.277327,-5.41801 v -1.38425 h -4.666901 -4.666905 l -0.960799,1.39647 c -1.090199,1.58456 -2.814093,5.09982 -2.814458,5.73911 -3.78e-4,0.65007 8.542818,0.36042 9.831736,-0.33332 z m 94.886433,47.06737 c -7.95641,-1.84307 -13.66478,-7.38379 -15.46406,-15.0099 l -0.5155,-2.18489 -5.73143,-0.0853 c -5.37352,-0.08 -5.77606,-0.12726 -6.44607,-0.7567 -0.87377,-0.82087 -0.92298,-2.1086 -0.11857,-3.10302 0.58277,-0.72044 0.72726,-0.739 6.4867,-0.83313 l 5.89064,-0.0963 0.36699,-1.93108 c 0.76954,-4.04927 3.96423,-8.96156 7.53081,-11.57967 3.62929,-2.66414 7.44291,-3.91953 11.93017,-3.92724 5.38041,-0.009 9.76924,1.75319 13.70783,5.50476 3.33243,3.17418 5.01567,6.25731 6.06626,11.11135 0.18326,0.84665 0.21877,0.85834 2.6074,0.85834 2.67763,0 3.49334,-0.35606 4.08301,-1.78228 0.25344,-0.61301 0.33548,-3.96613 0.27711,-11.32703 l -0.0829,-10.45625 -5.33223,-0.15606 c -5.26474,-0.15408 -5.35149,-0.16798 -6.85298,-1.09726 -1.10603,-0.68453 -1.75857,-1.39648 -2.39289,-2.61069 -0.79752,-1.52665 -0.87215,-1.95724 -0.87215,-5.03265 0,-2.74829 0.0999,-3.48155 0.54622,-4.01063 0.30042,-0.35609 3.56604,-2.21122 7.25694,-4.12251 3.6909,-1.91129 6.8347,-3.59244 6.98624,-3.7359 0.68901,-0.65228 -1.69157,-11.28276 -3.70031,-16.52373 -2.47525,-6.45811 -6.40237,-12.84608 -10.5672,-17.18894 -2.70884,-2.82463 -2.74786,-3.41879 -0.40978,-6.24038 2.15684,-2.60286 2.34039,-3.18398 1.32603,-4.19834 l -0.78551,-0.78551 h -7.3265 -7.3265 l -0.64691,-0.8224 c -0.35581,-0.45233 -0.64691,-1.00755 -0.64691,-1.23383 0,-0.92307 0.766,-1.98976 1.65022,-2.298 1.25871,-0.43879 13.16844,-0.42306 15.23489,0.02 1.96128,0.42062 4.11658,2.24598 4.68643,3.96902 0.81631,2.46829 0.0265,5.75622 -1.73352,7.21695 -0.76589,0.63563 -0.59568,1.10261 1.10814,3.04 5.17704,5.88673 9.8773,15.32649 12.14905,24.39951 2.00174,7.99461 2.4854,13.69892 2.48644,29.32543 l 6.2e-4,11.33561 0.70228,-0.21752 c 2.42414,-0.75083 5.16798,-2.91253 6.55604,-5.16508 1.53673,-2.49383 1.50139,-1.40265 1.41021,-43.53325 l -0.0849,-39.301915 -0.73308,-2.184881 c -1.35372,-4.034644 -2.78432,-6.34502 -5.82158,-9.401727 -2.42791,-2.443434 -3.24797,-3.048167 -5.78426,-4.265407 -5.29616,-2.541796 -2.84231,-2.40737 -43.94376,-2.40737 H 91.100667 l -0.152193,1.583887 c -0.222013,2.310542 -0.96296,3.109794 -3.761788,4.057817 -2.599816,0.880603 -4.190081,1.85872 -5.800676,3.567808 -2.089111,2.216874 -2.964731,2.46422 -9.187857,2.595389 -6.032867,0.127171 -7.06319,-0.05887 -7.667164,-1.384449 -0.19394,-0.425644 -0.352615,-1.539814 -0.352615,-2.47591 v -1.70201 h -4.525833 c -4.109663,0 -4.583235,-0.05745 -5.150085,-0.624257 -0.788503,-0.788505 -0.801202,-2.209064 -0.02829,-3.16472 0.569285,-0.703886 0.799785,-0.741388 5.150085,-0.837922 l 4.554126,-0.1011 V 71.202592 67.16798 h -4.525832 c -4.109664,0 -4.583235,-0.05745 -5.150086,-0.624257 -0.788502,-0.788505 -0.801202,-2.209064 -0.02829,-3.16472 0.569286,-0.703885 0.799786,-0.741388 5.150086,-0.837922 l 4.554126,-0.101099 v -1.863823 c 0,-1.577753 0.121199,-1.985112 0.789446,-2.653359 l 0.789449,-0.789449 6.155363,0.101335 c 7.070761,0.116436 7.028059,0.103577 10.213009,3.066558 2.251871,2.094906 3.30476,2.706328 5.175605,3.005485 0.864067,0.138166 1.723709,0.566252 2.421798,1.20601 0.934959,0.85682 1.102203,1.232434 1.228873,2.759921 l 0.146627,1.768119 36.402119,0.0024 c 23.74374,0.0012 37.10759,0.115491 38.43092,0.327789 2.89411,0.464243 6.82242,1.882762 9.27929,3.35078 4.72505,2.823294 8.05682,6.451561 10.52093,11.4572 3.05758,6.211243 2.80178,2.105417 2.91687,46.818962 0.0738,28.71444 0.005,39.83205 -0.25756,41.19595 -1.08775,5.66312 -5.68834,10.73341 -11.0579,12.18689 l -2.03783,0.5516 v 3.64254 c 0,4.24798 -0.46619,6.17415 -1.91971,7.93177 -1.55478,1.88007 -3.61166,2.68412 -6.87573,2.6878 l -2.70899,0.004 -0.35825,1.79473 c -0.19704,0.9871 -0.99752,3.12907 -1.77885,4.75992 -1.17103,2.44427 -1.83856,3.37705 -3.79956,5.30948 -2.51864,2.48194 -5.3663,4.20727 -8.46541,5.129 -2.40486,0.71525 -7.19879,0.89539 -9.51985,0.35772 z m 7.08551,-4.58646 c 7.02219,-1.4644 12.12551,-7.74902 12.10262,-14.90413 -0.0147,-4.63067 -1.23273,-7.56043 -4.50199,-10.82971 -3.26928,-3.26926 -6.19904,-4.48719 -10.82972,-4.50199 -7.1551,-0.0229 -13.43973,5.08043 -14.90412,12.10262 -2.22875,10.6876 7.44561,20.36196 18.13321,18.13321 z m -5.37084,-6.79477 c -2.21342,-0.72625 -4.37161,-2.57961 -5.49763,-4.72111 -0.88012,-1.67383 -0.80612,-5.35307 0.14437,-7.17891 1.54332,-2.96461 3.66933,-4.37716 6.94029,-4.6112 2.62601,-0.18789 4.47426,0.42096 6.31506,2.08028 4.25965,3.83968 3.45257,10.7051 -1.59151,13.53835 -1.75317,0.98476 -4.74145,1.40743 -6.31058,0.89259 z m 4.06988,-4.88247 c 1.16603,-0.60297 1.86254,-1.94917 1.86254,-3.59987 0,-1.05683 -0.19532,-1.49055 -1.06122,-2.35646 -0.86591,-0.8659 -1.29963,-1.06122 -2.35646,-1.06122 -2.62663,0 -4.2989,1.74037 -3.97716,4.13912 0.35636,2.65689 3.14996,4.11039 5.5323,2.87843 z m 24.95989,-39.47869 c 0,-4.0396 -0.0931,-5.30491 -0.39015,-5.30099 -0.2146,0.002 -2.63747,1.17557 -5.38419,2.60605 l -4.99402,2.60086 -0.094,1.96073 c -0.0802,1.67351 0.008,2.06903 0.60063,2.70011 0.67207,0.71539 0.8499,0.73938 5.47816,0.73938 h 4.78355 z M 78.811099,78.958377 c 2.187229,-2.026035 4.137953,-3.257325 6.056903,-3.823093 l 1.315288,-0.387788 0.08825,-3.477538 c 0.08023,-3.161122 0.03762,-3.477562 -0.468189,-3.477786 -1.152886,-4.96e-4 -4.560085,-1.92509 -6.271147,-3.542304 -0.976983,-0.923402 -2.083125,-1.838417 -2.458095,-2.033373 -0.398688,-0.207295 -2.245455,-0.354485 -4.4478,-0.354485 h -3.766035 v 9.544662 9.544662 l 4.010671,-0.102869 4.010668,-0.102869 z M 93.34801,160.6642 c -0.42137,-0.42137 -0.76613,-1.13004 -0.76613,-1.57482 0,-0.44478 0.34476,-1.15345 0.76613,-1.57481 0.762251,-0.76226 0.797655,-0.76614 6.99731,-0.76614 3.42716,0 6.45857,0.0873 6.73647,0.19389 0.27788,0.10665 0.72181,0.61266 0.98649,1.1245 0.39594,0.76565 0.41396,1.09301 0.10169,1.84686 -0.20874,0.50394 -0.63194,1.05134 -0.94045,1.21645 -0.30851,0.16511 -3.38568,0.3002 -6.83817,0.3002 -6.248548,0 -6.280735,-0.004 -7.04336,-0.76613 z M 58.996975,146.94439 c -1.894434,-0.83535 -1.829959,-1.99314 0.322016,-5.7824 8.133067,-14.32096 21.195175,-23.80045 37.514498,-27.22517 3.249601,-0.68195 4.119661,-0.71711 20.250321,-0.81848 14.90103,-0.0937 17.1081,-0.0455 19.03971,0.41498 4.60694,1.09834 9.08917,3.83248 11.98269,7.30941 5.46264,6.56402 8.89829,14.61263 9.55962,22.39511 0.18656,2.19529 0.14361,2.49658 -0.44453,3.11801 -0.35807,0.37835 -1.10808,0.77008 -1.66669,0.87051 -0.55859,0.10039 -15.03864,0.14201 -32.17787,0.0924 l -31.162239,-0.0901 -0.596626,-0.73686 c -0.775684,-0.95801 -0.759156,-2.2483 0.03979,-3.10586 0.626868,-0.67286 0.774264,-0.6831 9.831975,-0.6831 h 9.19558 v -12.64119 -12.64111 l -1.01441,0.002 c -3.39991,0.009 -10.233236,0.74586 -13.301288,1.43396 -12.542494,2.81305 -23.610908,10.34295 -30.692628,20.88033 l -1.887898,2.80914 10.631476,0.0821 10.631481,0.0821 0.643701,0.81833 c 0.838939,1.06654 0.812409,1.75165 -0.109345,2.8236 l -0.753043,0.87575 -12.434297,0.0713 c -9.956274,0.0571 -12.627149,-0.0138 -13.401996,-0.35546 z m 93.726315,-5.56818 c -0.55643,-4.01492 -3.02953,-10.2803 -5.52805,-14.00475 -3.27522,-4.88225 -6.24537,-7.33486 -10.7715,-8.89458 -2.48332,-0.85576 -2.49174,-0.85638 -11.69283,-0.87834 l -9.20773,-0.0219 -0.0816,12.56309 -0.0815,12.56309 h 18.77355 18.77355 l -0.18384,-1.32654 z"
       id="path2512" />
  </g>
</svg>
