<?xml version="1.0" encoding="UTF-8" standalone="no"?>
<!-- Created with Inkscape (http://www.inkscape.org/) -->

<svg
   width="80px"
   height="80px"
   viewBox="0 0 192.83302 192.83302"
   version="1.1"
   id="svg5"
   sodipodi:docname="passenger-bus.svg"
   inkscape:version="1.1.1 (3bf5ae0d25, 2021-09-20)"
   xmlns:inkscape="http://www.inkscape.org/namespaces/inkscape"
   xmlns:sodipodi="http://sodipodi.sourceforge.net/DTD/sodipodi-0.dtd"
   xmlns="http://www.w3.org/2000/svg"
   xmlns:svg="http://www.w3.org/2000/svg">
  <sodipodi:namedview
     id="namedview7"
     pagecolor="#ffffff"
     bordercolor="#666666"
     borderopacity="1.0"
     inkscape:pageshadow="2"
     inkscape:pageopacity="0.0"
     inkscape:pagecheckerboard="0"
     inkscape:document-units="mm"
     showgrid="false"
     inkscape:zoom="0.38425619"
     inkscape:cx="463.23262"
     inkscape:cy="257.64061"
     inkscape:window-width="1284"
     inkscape:window-height="860"
     inkscape:window-x="52"
     inkscape:window-y="0"
     inkscape:window-maximized="0"
     inkscape:current-layer="layer1" />
  <defs
     id="defs2" />
  <g
     inkscape:label="Layer 1"
     inkscape:groupmode="layer"
     id="layer1"
     transform="translate(-12.158902,-41.372017)">
    <path
       style="fill:#000000;stroke-width:0.274752"
       d="m 72.053716,202.24446 c -0.666005,-0.35161 -1.581833,-1.16538 -2.035171,-1.80837 -0.79117,-1.12215 -0.827883,-1.30468 -0.914629,-4.54696 l -0.09037,-3.37788 -2.107648,-0.12589 c -3.315988,-0.1981 -5.499494,-1.56645 -6.833083,-4.28215 -0.749791,-1.52687 -0.769604,-1.68548 -0.769604,-6.16074 0,-4.36256 0.0303,-4.62388 0.602927,-5.19739 0.731488,-0.73263 2.066885,-0.7921 2.804167,-0.12488 0.470893,0.42616 0.539812,0.95408 0.62468,4.78527 0.107821,4.86676 0.362995,5.703 1.973504,6.46723 0.86346,0.40974 4.690457,0.44918 43.587481,0.44918 38.89702,0 42.72402,-0.0394 43.58748,-0.44918 1.94652,-0.92367 1.87527,-0.22738 1.96078,-19.16287 l 0.0768,-17.0019 -0.90103,0.24202 c -1.17633,0.31598 -88.266462,0.31755 -89.439917,0.002 l -0.892939,-0.24043 v 8.92119 c 0,8.59135 -0.02048,8.93971 -0.553051,9.42171 -0.758085,0.68606 -2.087578,0.63792 -2.827929,-0.10238 l -0.602943,-0.60289 -0.07243,-38.73245 -0.07243,-38.732452 h -3.302116 c -3.80942,0 -4.912182,0.326149 -5.750197,1.700667 -0.304973,0.500213 -0.55496,1.047412 -0.555521,1.216 -6.07e-4,0.182342 0.751208,0.360346 1.855738,0.439375 2.177984,0.155835 3.351447,0.690302 4.234806,1.928791 l 0.639852,0.89709 0.07687,12.152629 c 0.104269,16.4772 0.689088,15.45791 -8.868971,15.45791 -6.880623,0 -7.317979,-0.11436 -8.377072,-2.19035 -0.55355,-1.08506 -0.566736,-1.44066 -0.491898,-13.26756 l 0.07695,-12.152629 0.639852,-0.89709 c 0.880968,-1.235143 2.05602,-1.772899 4.210834,-1.927076 l 1.832793,-0.131137 0.183001,-0.97549 c 0.476126,-2.537974 2.078668,-4.538177 4.521772,-5.643821 1.020712,-0.461931 1.963768,-0.586262 5.134956,-0.676983 l 3.884615,-0.111132 0.102533,-5.672171 c 0.100344,-5.550788 0.118934,-5.705689 0.868904,-7.238556 0.816411,-1.668693 1.767146,-2.620888 3.591177,-3.596698 l 1.13101,-0.60506 h 44.097721 44.09771 l 1.13101,0.60506 c 1.82403,0.97581 2.77477,1.928005 3.59119,3.596698 0.74996,1.532867 0.76855,1.687768 0.86889,7.238556 l 0.10254,5.672171 3.88461,0.111132 c 4.25058,0.1216 5.79471,0.557439 7.41332,2.092452 0.93554,0.887211 1.98877,2.870967 2.24258,4.223898 l 0.18384,0.979944 1.83279,0.131137 c 2.15482,0.154177 3.32986,0.691933 4.21084,1.927076 l 0.63985,0.89709 0.0769,12.152629 c 0.1043,16.48187 0.69395,15.45731 -8.89703,15.45893 -5.84687,7.8e-4 -6.10627,-0.022 -6.97826,-0.61716 -0.49811,-0.34 -1.13707,-1.05093 -1.41991,-1.57982 -0.48378,-0.90468 -0.50985,-1.68586 -0.44004,-13.18811 l 0.0742,-12.226469 0.63985,-0.89709 c 0.88336,-1.238489 2.05683,-1.772956 4.23482,-1.928791 1.10453,-0.07903 1.85634,-0.257033 1.85573,-0.439375 -5.5e-4,-0.168588 -0.25055,-0.715787 -0.55552,-1.216 -0.83793,-1.37437 -1.94088,-1.700667 -5.74862,-1.700667 h -3.30054 l -0.074,47.326052 -0.074,47.32605 -0.76961,1.56722 c -1.33359,2.7157 -3.5171,4.08405 -6.83309,4.28215 l -2.10764,0.1259 -0.0904,3.37788 c -0.0867,3.24228 -0.12346,3.4248 -0.91463,4.54696 -0.45334,0.64299 -1.36917,1.45676 -2.03517,1.80837 -1.16321,0.6141 -1.45313,0.63928 -7.36056,0.63928 -6.92529,0 -7.48579,-0.12848 -9.0992,-2.08583 -1.06318,-1.28983 -1.4246,-2.77807 -1.4246,-5.86628 v -2.48848 H 108.89597 89.938076 v 2.48848 c 0,3.08821 -0.361414,4.57645 -1.424604,5.86628 -1.613406,1.95735 -2.17391,2.08583 -9.099191,2.08583 -5.907426,0 -6.197351,-0.0252 -7.360565,-0.63928 z m 13.238412,-3.99325 c 0.433073,-0.5354 0.524663,-1.09896 0.524663,-3.22834 v -2.57971 h -6.3193 -6.319292 l 0.0039,2.67884 c 0.0023,1.47336 0.09853,2.82722 0.213818,3.00858 0.462669,0.72786 1.709576,0.8877 6.469551,0.82935 4.78574,-0.0586 4.914098,-0.0755 5.426354,-0.70872 z m 58.130452,0.49406 c 0.42232,-0.16056 0.8612,-0.43875 0.9753,-0.61819 0.1141,-0.17943 0.20935,-1.53172 0.21166,-3.00508 l 0.004,-2.67884 h -6.3193 -6.3193 v 2.49083 c 0,2.67193 0.23966,3.44541 1.18566,3.82656 0.86269,0.34758 9.34055,0.33497 10.26176,-0.0153 z m 9.13183,-50.93528 c 1.20773,-0.62455 1.71549,-1.64237 1.76708,-3.54217 l 0.0459,-1.69217 -7.41831,-0.14867 c -4.08007,-0.0818 -7.45518,-0.1745 -7.50025,-0.20607 -0.0451,-0.0315 -0.24528,-0.44583 -0.44491,-0.9206 -0.45233,-1.07577 -0.28891,-1.74305 0.59769,-2.44044 0.64694,-0.50888 1.1351,-0.54287 7.79665,-0.54287 h 7.10651 V 118.80959 99.302194 H 112.5048 70.504781 l -0.723934,-0.569446 c -0.825453,-0.649297 -0.981498,-1.995541 -0.333975,-2.881131 0.382333,-0.522894 1.216968,-0.536016 42.655268,-0.670706 l 42.26531,-0.137376 0.0774,-3.228337 0.0774,-3.228337 H 108.90469 63.287122 V 113.45193 138.317 l 12.982038,-0.0137 12.982039,-0.0137 11.774551,-9.87739 c 10.30167,-8.64182 11.88873,-9.87739 12.68734,-9.87739 0.65886,0 1.07121,0.20139 1.48224,0.72393 0.68079,0.86549 0.71551,1.41802 0.14068,2.23871 -0.23582,0.33668 -4.59407,4.0914 -9.68501,8.34383 -5.09094,4.25242 -9.437293,7.89908 -9.658565,8.10368 -0.339684,0.31408 0.287862,0.372 4.030855,0.372 h 4.43317 l 11.08183,-9.27288 c 6.09501,-5.10009 11.43792,-9.55108 11.87314,-9.89108 1.63545,-1.27768 3.57397,-0.41608 3.41167,1.51635 -0.0802,0.95543 -0.5637,1.40519 -9.95091,9.25723 l -9.86658,8.25301 10.45625,0.13737 c 9.78862,0.1286 10.49315,0.17079 11.03427,0.66077 0.79001,0.71535 0.76273,2.09221 -0.0567,2.86204 l -0.63476,0.59631 -34.190067,0.0698 -34.190089,0.0698 0.04595,1.69217 c 0.0507,1.86852 0.54978,2.89803 1.710611,3.52897 1.08981,0.59234 86.228545,0.60519 87.373355,0.0132 z M 52.231429,110.49835 52.303197,99.302194 h -4.811245 -4.811246 v 11.081666 c 0,6.09492 0.08531,11.16698 0.189574,11.27125 0.104269,0.10426 2.237034,0.15578 4.739477,0.11448 l 4.549903,-0.0751 z m 122.814201,0 0.0718,-11.196156 h -4.81123 -4.81125 v 11.081666 c 0,6.09492 0.0853,11.16698 0.18957,11.27125 0.10427,0.10426 2.23704,0.15578 4.73948,0.11448 l 4.5499,-0.0751 z M 154.36404,80.756424 c -0.004,-4.08034 -0.2999,-4.982657 -1.88059,-5.732746 -0.86346,-0.409739 -4.69046,-0.449177 -43.58748,-0.449177 -38.897021,0 -42.724018,0.03944 -43.587478,0.449177 -1.487727,0.705972 -1.847825,1.690584 -1.971432,5.390411 -0.05935,1.776193 -0.03676,3.414769 0.05016,3.641279 0.139698,0.364038 5.42855,0.40377 45.56913,0.342336 l 45.41111,-0.0695 -0.003,-3.571777 z M 98.867522,185.04502 c -1.398053,-0.58532 -1.642986,-1.25263 -1.740752,-4.74255 -0.06083,-2.1711 0.02227,-3.56911 0.243928,-4.10424 0.675927,-1.63183 0.548293,-1.61395 11.525272,-1.61395 10.97699,0 10.84935,-0.0178 11.52527,1.61395 0.22194,0.5358 0.30483,1.93808 0.24393,4.12673 -0.089,3.20048 -0.11858,3.34148 -0.85375,4.07621 l -0.76152,0.76106 -9.81644,0.0565 c -5.39904,0.0311 -10.063715,-0.0471 -10.365938,-0.17364 z m 17.721508,-5.10308 v -1.23639 h -7.69306 -7.69306 v 1.23639 1.23638 h 7.69306 7.69306 z m -42.777436,-6.48451 c -1.904196,-0.73209 -4.031564,-3.031 -4.611275,-4.98311 -0.247612,-0.83381 -0.417738,-2.4803 -0.417131,-4.03705 7.79e-4,-2.15205 0.101621,-2.79396 0.55552,-3.53844 1.001055,-1.64193 1.653921,-1.74984 9.990206,-1.65133 l 7.449515,0.088 1.561031,0.76659 c 1.700198,0.83492 2.905936,2.0381 3.851336,3.84315 0.826333,1.57773 1.067481,6.76848 0.381585,8.21389 -0.865765,1.82446 -1.140527,1.87728 -9.682874,1.86129 -6.966901,-0.013 -7.778234,-0.0634 -9.077913,-0.56302 z m 15.027474,-5.20128 c 0,-2.07017 -0.497934,-3.29286 -1.686117,-4.14029 -0.904925,-0.64542 -1.06178,-0.66083 -7.586768,-0.74542 l -6.662738,-0.0864 7.79e-4,1.87227 c 7.78e-4,2.16349 0.55457,3.33492 1.98841,4.20914 0.827018,0.50424 1.394174,0.54604 7.420823,0.54699 l 6.525292,7.8e-4 z m 37.573912,5.29649 c -1.33183,-0.82577 -1.6521,-1.95467 -1.529,-5.38946 0.0889,-2.48006 0.22439,-3.27704 0.71716,-4.21791 0.9454,-1.80505 2.15115,-3.00823 3.85135,-3.84315 l 1.56103,-0.76659 7.44951,-0.088 c 8.33628,-0.0985 8.98915,0.009 9.99021,1.65133 0.4539,0.74448 0.55467,1.38639 0.55551,3.53844 0.002,3.54777 -0.47914,5.05545 -2.21749,6.95748 -2.29487,2.51097 -2.89023,2.64147 -12.01021,2.63271 -6.68211,-0.006 -7.70635,-0.0646 -8.36807,-0.47482 z m 16.58032,-4.26282 c 1.31443,-0.87811 1.89426,-2.18504 1.89478,-4.27087 l 5.4e-4,-1.73489 -6.66274,0.0864 c -6.52498,0.0846 -6.68184,0.1 -7.58677,0.74542 -1.1883,0.84743 -1.68623,2.07012 -1.68623,4.14029 v 1.65734 h 6.55342 c 6.35583,0 6.58156,-0.0188 7.487,-0.62367 z"
       id="path5234" />
  </g>
</svg>
