<?xml version="1.0" encoding="UTF-8" standalone="no"?>
<!-- Created with Inkscape (http://www.inkscape.org/) -->

<svg
   width="80px"
   height="80px"
   viewBox="0 0 192.83302 192.83302"
   version="1.1"
   id="svg5"
   sodipodi:docname="tanker.svg"
   inkscape:version="1.1.1 (3bf5ae0d25, 2021-09-20)"
   inkscape:export-filename="C:\Users\Administrator\Desktop\tanker.png"
   inkscape:export-xdpi="1200"
   inkscape:export-ydpi="1200"
   xmlns:inkscape="http://www.inkscape.org/namespaces/inkscape"
   xmlns:sodipodi="http://sodipodi.sourceforge.net/DTD/sodipodi-0.dtd"
   xmlns="http://www.w3.org/2000/svg"
   xmlns:svg="http://www.w3.org/2000/svg">
  <sodipodi:namedview
     id="namedview7"
     pagecolor="#ffffff"
     bordercolor="#666666"
     borderopacity="1.0"
     inkscape:pageshadow="2"
     inkscape:pageopacity="0.0"
     inkscape:pagecheckerboard="0"
     inkscape:document-units="mm"
     showgrid="false"
     inkscape:zoom="4.3473625"
     inkscape:cx="52.445592"
     inkscape:cy="36.803924"
     inkscape:window-width="1284"
     inkscape:window-height="860"
     inkscape:window-x="167"
     inkscape:window-y="86"
     inkscape:window-maximized="0"
     inkscape:current-layer="layer1" />
  <defs
     id="defs2" />
  <g
     inkscape:label="Layer 1"
     inkscape:groupmode="layer"
     id="layer1"
     transform="translate(-12.158902,-41.372017)">
    <path
       style="fill:#000000;stroke-width:0.192833"
       d="m 50.534943,193.50304 c -5.9776,-1.56613 -10.35813,-7.1916 -10.35813,-13.30189 0,-1.00755 0.0703,-2.18664 0.15629,-2.62021 l 0.1563,-0.7883 -5.15843,-0.12539 -5.15843,-0.12538 -0.65036,-0.62898 -0.65037,-0.62898 0.0603,-10.74523 c 0.0591,-10.51891 0.0686,-10.75353 0.4539,-11.13864 0.57468,-0.57446 2.10663,-0.77391 7.12441,-0.92754 l 4.43263,-0.13572 -2.98639,-3.0898 c -3.37141,-3.48817 -4.64715,-5.25361 -6.34524,-8.78092 -2.28616,-4.74886 -2.62074,-6.86942 -2.61472,-16.57215 0.004,-6.35629 0.0348,-6.98116 0.431,-8.74264 0.62664,-2.78564 1.48309,-5.14812 2.77265,-7.64816 3.24273,-6.28664 8.4931,-10.937385 15.32718,-13.576705 3.25277,-1.256223 6.82295,-1.683728 15.88562,-1.9022 l 1.83191,-0.04416 0.0511,-5.780685 0.0512,-5.780684 0.8166,-0.833737 0.81661,-0.833737 13.30548,0.07745 c 7.31801,0.0426 13.55057,0.145174 13.85013,0.227948 0.32818,0.09068 0.62252,0.351237 0.74056,0.655566 0.10784,0.278006 0.24425,3.157267 0.30343,6.40456 l 0.10751,5.899493 4.64766,0.123417 c 5.600147,0.148707 8.064387,0.378874 10.647097,0.994461 6.15065,1.466008 12.52537,5.933568 16.11137,11.291243 2.35919,3.52475 4.20843,7.95209 4.58572,10.97886 0.11337,0.90951 0.20368,5.1668 0.20368,9.60158 0,8.71845 -0.0556,9.30859 -1.18198,12.54732 -1.58422,4.55516 -3.40662,7.36359 -7.77877,11.98761 -0.85239,0.90149 -1.80441,1.9211 -2.11559,2.26578 l -0.56579,0.62671 h 10.82557 10.82558 l 0.0574,-25.59858 0.0574,-25.59858 0.45256,-1.12172 c 0.55915,-1.385905 2.32924,-3.334595 3.60997,-3.974225 0.61559,-0.30744 1.49478,-0.51649 2.66997,-0.63486 1.01928,-0.10267 8.44657,-0.12368 17.75729,-0.0502 l 16.00514,0.12625 1.06058,0.64375 c 0.58332,0.35406 1.28931,0.8888 1.56886,1.1883 1.33844,1.43399 1.83381,3.207875 6.34486,22.720365 l 2.71942,11.76282 -0.13721,18.3028 -0.13721,18.3028 -0.77542,1.559 c -0.58873,1.18365 -1.1559,1.94135 -2.35572,3.14711 -2.41267,2.42458 -4.38891,3.18877 -8.86347,3.4274 -1.16839,0.0623 -2.39684,0.15462 -2.72988,0.20511 l -0.60552,0.0918 0.027,2.55027 c 0.0316,2.97976 -0.2319,4.20432 -1.43103,6.65098 -1.37393,2.8033 -3.40651,4.8303 -6.30795,6.29064 -4.05281,2.03985 -8.79393,1.90488 -12.89926,-0.36722 -1.81234,-1.00304 -4.37878,-3.6143 -5.30351,-5.39613 -1.22227,-2.35513 -1.54029,-3.69473 -1.65255,-6.96103 l -0.10006,-2.91153 -9.48599,-0.13815 c -5.21729,-0.076 -9.82683,-0.21473 -10.24343,-0.30833 -1.4751,-0.3314 -2.04323,-1.71994 -1.24164,-3.03465 0.21016,-0.34468 0.40508,-0.6451 0.43315,-0.66759 0.0281,-0.0225 2.6109,-0.0876 5.73962,-0.14462 l 5.68857,-0.10374 0.0504,-7.76153 0.0504,-7.76153 H 87.326713 33.138443 v 7.80974 7.80973 h 4.36455 4.36455 l 1.39578,-1.32585 c 3.90655,-3.71084 6.45745,-4.87027 10.70109,-4.86384 3.91268,0.006 6.64177,1.1543 10.1014,4.25055 0.83618,0.74836 1.59376,1.36065 1.6835,1.36065 0.0897,0 0.83253,-0.61017 1.65063,-1.35593 3.41644,-3.11432 6.21221,-4.29256 10.18651,-4.29298 4.02151,-3.9e-4 7.29142,1.49909 10.60065,4.86124 l 1.34466,1.36616 h 6.5856 c 3.62207,0 6.860537,0.055 7.196577,0.1222 1.24665,0.24933 1.55911,2.27873 0.51205,3.32578 -0.47154,0.47154 -0.63549,0.50343 -3.24435,0.63107 -1.511247,0.0739 -4.192637,0.14092 -5.958647,0.14885 l -3.21093,0.0144 -0.11302,2.26579 c -0.20084,4.02646 -0.36972,4.88571 -1.3475,6.85591 -3.43415,6.91967 -10.91268,9.82882 -17.81344,6.92943 -1.70247,-0.7153 -3.04461,-1.61497 -4.94055,-3.31177 l -1.51857,-1.35908 -1.17493,1.08777 c -2.7571,2.55259 -4.88315,3.78093 -7.5888,4.38449 -1.86958,0.41705 -4.61526,0.38277 -6.38027,-0.0797 z m 5.0813,-4.0605 c 2.83962,-0.51479 5.56473,-2.48621 6.73483,-4.87217 1.93456,-3.94476 1.24088,-8.32646 -1.78751,-11.29107 -2.09952,-2.05531 -4.29248,-2.83946 -7.52806,-2.69188 -1.27847,0.0583 -1.72949,0.18075 -3.03428,0.82365 -4.0562,1.99858 -6.25288,6.15117 -5.41844,10.24298 0.44707,2.1923 1.26116,3.76813 2.6773,5.18246 2.27093,2.26801 5.19333,3.17942 8.35616,2.60603 z m 24.04899,-0.0763 c 6.26451,-1.32745 9.36231,-8.98282 5.84572,-14.4461 -0.93737,-1.45627 -2.43811,-2.74981 -4.11322,-3.54531 -1.29439,-0.6147 -1.70635,-0.71423 -3.22609,-0.77938 -4.62874,-0.19843 -8.16821,2.20784 -9.70396,6.59714 -1.49093,4.26119 0.59031,9.32932 4.67285,11.37907 2.08628,1.04748 4.14694,1.29843 6.5247,0.79458 z m 87.002027,-0.0115 c 3.63359,-0.94643 6.63526,-4.24192 7.27807,-7.99047 0.29916,-1.74457 0.0292,-3.17733 -1.01345,-5.37864 -2.81304,-5.93908 -10.36739,-7.28224 -15.14655,-2.69305 -2.13326,2.04845 -2.89719,4.12233 -2.7378,7.43236 0.0817,1.69648 0.16984,2.07159 0.78961,3.36015 1.17606,2.44514 3.978,4.77397 6.44124,5.35366 1.16646,0.2745 3.15886,0.23637 4.38888,-0.084 z m -12.90663,-18.23307 c 3.34103,-3.39445 6.59464,-4.85187 10.79348,-4.83479 3.92943,0.016 6.3703,1.06801 9.75682,4.20524 l 2.19882,2.03696 3.18175,-0.12606 c 1.74996,-0.0693 3.72593,-0.25134 4.39106,-0.40446 2.30698,-0.53112 3.75295,-1.57213 4.60626,-3.31623 l 0.52813,-1.07946 0.15684,-10.59663 c 0.0863,-5.82815 0.1341,-13.8187 0.10631,-17.75678 l -0.0505,-7.16014 -12.11638,-0.15032 -12.1164,-0.15032 -1.36942,-0.68963 c -1.52966,-0.77032 -3.403,-2.44169 -4.13352,-3.68786 -1.06955,-1.82453 -1.05675,-1.65959 -1.18834,-15.31247 -0.0671,-6.96462 -0.16544,-12.704885 -0.21847,-12.756145 -0.053,-0.0513 -2.26579,-0.0272 -4.91724,0.0535 -5.16178,0.15704 -5.74116,0.26362 -6.62063,1.218005 -0.24749,0.26856 -0.54461,0.82209 -0.66026,1.23005 -0.14706,0.51876 -0.23233,11.24975 -0.28361,35.69275 l -0.0733,34.95099 h 3.342 3.34201 z m 6.49599,-24.46187 c -1.02973,-1.02973 -0.94802,-2.31597 0.20114,-3.16645 0.48547,-0.35928 0.87979,-0.40049 4.53949,-0.47436 l 4.00784,-0.0809 0.61879,0.70477 c 0.49387,0.56249 0.6188,0.8743 0.6188,1.54445 0,1.05849 -0.43672,1.61758 -1.44625,1.85148 -0.42423,0.0983 -2.39168,0.18079 -4.37212,0.18332 l -3.60078,0.005 z M 68.234013,129.60705 v -22.82616 l 0.86344,-0.79589 c 0.54519,-0.50253 1.04625,-0.79589 1.35941,-0.79589 0.73983,0 1.62214,0.52869 1.86585,1.11803 0.12893,0.31179 0.25054,2.39906 0.3028,5.19725 l 0.0873,4.6762 h 7.77012 7.77012 l 0.0692,-4.57978 c 0.0751,-4.97151 0.17127,-5.45314 1.22757,-6.14526 0.65379,-0.42838 1.73136,-0.23467 2.43276,0.43732 l 0.5484,0.52539 v 23.00747 23.00747 h 6.54237 c 3.603267,0 7.210307,-0.0929 8.029187,-0.2068 7.631,-1.06137 14.54298,-6.18742 18.01473,-13.36004 1.7757,-3.66858 2.1056,-5.50679 2.25453,-12.56203 0.18302,-8.671 -0.24785,-11.8274 -2.16903,-15.88948 -2.46208,-5.20572 -6.06951,-8.80967 -11.55657,-11.545425 -2.31644,-1.15494 -3.3629,-1.52798 -5.39933,-1.92475 -1.33949,-0.26099 -5.06926,-0.31046 -28.319627,-0.37563 l -26.77697,-0.0751 -2.14798,0.71326 c -5.13681,1.70574 -8.31168,3.764035 -11.88082,7.702435 -2.22603,2.45634 -4.08557,5.80073 -5.14102,9.24616 l -0.53164,1.7355 -0.0734,7.21174 c -0.0435,4.26813 0.009,7.9705 0.1288,9.07066 0.57672,5.30134 3.98814,11.29679 8.4667,14.87993 3.84701,3.07787 8.18064,4.91362 12.37916,5.24389 0.47727,0.0375 3.7964,0.0834 7.37587,0.10195 l 6.50811,0.0337 z m 20.05464,15.88416 v -6.94199 h -7.80974 -7.80974 v 6.94199 6.94199 h 7.80974 7.80974 z m 0,-18.1263 v -6.74916 h -7.80974 -7.80974 v 6.74916 6.74915 h 7.80974 7.80974 z m 98.420177,0.018 c 1.23143,-0.29947 1.3908,-0.57928 1.135,-1.9927 -0.31613,-1.74681 -4.19799,-18.54476 -4.89472,-21.18096 -0.86887,-3.28747 -1.52138,-4.236715 -3.17612,-4.620505 -0.41603,-0.0965 -4.42265,-0.1775 -8.9036,-0.18003 l -8.1472,-0.005 0.003,10.364785 c 0.003,11.44374 0.14311,14.28 0.76645,15.56766 0.44029,0.90952 1.47039,1.70391 2.5038,1.93089 2.04135,0.44835 18.95667,0.54264 20.71325,0.11546 z M 90.795473,87.544885 v -4.531576 h -10.50939 -10.5094 v 4.531576 4.531575 h 10.5094 10.50939 z m 25.390777,88.768935 c -1.97147,-1.01383 -1.40319,-3.82598 0.77316,-3.82598 1.37976,0 2.18886,1.09544 1.90939,2.58513 -0.13865,0.73909 -0.34324,0.95341 -1.28433,1.34543 -0.59896,0.24951 -0.72851,0.23982 -1.39822,-0.10458 z"
       id="path117" />
  </g>
</svg>
