<?xml version="1.0" encoding="UTF-8" standalone="no"?>
<!-- Created with Inkscape (http://www.inkscape.org/) -->

<svg
   width="80px"
   height="80px"
   viewBox="0 0 192.83302 192.83302"
   version="1.1"
   id="svg5"
   sodipodi:docname="tipper.svg"
   inkscape:version="1.1.1 (3bf5ae0d25, 2021-09-20)"
   inkscape:export-filename="C:\Users\Administrator\Desktop\tipper.png"
   inkscape:export-xdpi="1200"
   inkscape:export-ydpi="1200"
   xmlns:inkscape="http://www.inkscape.org/namespaces/inkscape"
   xmlns:sodipodi="http://sodipodi.sourceforge.net/DTD/sodipodi-0.dtd"
   xmlns="http://www.w3.org/2000/svg"
   xmlns:svg="http://www.w3.org/2000/svg">
  <sodipodi:namedview
     id="namedview7"
     pagecolor="#ffffff"
     bordercolor="#666666"
     borderopacity="1.0"
     inkscape:pageshadow="2"
     inkscape:pageopacity="0.0"
     inkscape:pagecheckerboard="0"
     inkscape:document-units="mm"
     showgrid="false"
     inkscape:zoom="1.0868406"
     inkscape:cx="-16.561766"
     inkscape:cy="110.41178"
     inkscape:window-width="1284"
     inkscape:window-height="860"
     inkscape:window-x="52"
     inkscape:window-y="0"
     inkscape:window-maximized="0"
     inkscape:current-layer="layer1" />
  <defs
     id="defs2" />
  <g
     inkscape:label="Layer 1"
     inkscape:groupmode="layer"
     id="layer1"
     transform="translate(-12.158902,-41.372017)">
    <path
       style="fill:#000000;stroke-width:0.192833"
       d="m 71.665327,200.0768 c -4.875721,-0.76575 -9.470114,-3.75071 -12.192986,-7.92173 -0.521671,-0.79912 -1.542527,-2.76932 -2.268569,-4.37821 l -1.320073,-2.92527 -3.972169,-0.0115 c -2.184694,-0.006 -4.386087,-0.0796 -4.891989,-0.16285 -1.087451,-0.17894 -1.795773,-0.77206 -2.077573,-1.73967 -0.110399,-0.37908 -0.297252,-3.75789 -0.415229,-7.50846 -0.23887,-7.59384 -0.06719,-11.84488 0.553982,-13.71749 0.307983,-0.92846 0.458995,-1.11463 1.21221,-1.49445 1.232278,-0.62141 1.582648,-0.55638 2.741769,0.50885 l 1.025824,0.94274 0.205756,7.59012 c 0.22403,8.2642 0.245679,8.41215 1.388059,9.48572 0.686944,0.64557 1.810523,0.85503 2.81257,0.52432 1.042509,-0.34406 2.277732,-1.87403 3.588173,-4.44437 1.438596,-2.82172 3.012977,-4.83731 5.014914,-6.42032 4.675734,-3.69728 10.647674,-5.06125 15.819064,-3.61303 3.401203,0.95249 7.375061,3.49165 9.504115,6.0728 1.296019,1.57122 1.857921,2.59632 3.227815,5.8886 l 1.083191,2.60324 19.944439,0.0464 19.94444,0.0464 1.21346,-2.66798 c 1.63862,-3.60277 2.39522,-4.83799 4.03373,-6.58548 2.04312,-2.179 4.57907,-3.82957 7.95935,-5.1805 1.21327,-0.48488 1.39349,-0.50193 5.30543,-0.50193 3.96642,0 4.0768,0.0109 5.38089,0.53034 3.5821,1.42686 6.87756,3.66646 8.6259,5.86216 1.04548,1.31299 2.03716,3.06545 2.8493,5.03514 0.75609,1.83374 1.22475,2.4662 2.20241,2.9722 0.73413,0.37996 1.22747,0.42853 5.72979,0.5641 2.70956,0.0816 5.15203,0.23408 5.4277,0.33889 0.49986,0.19005 1.50504,1.94204 1.50504,2.62323 0,0.5454 -0.55294,1.40415 -1.20144,1.86593 -0.6158,0.43849 -0.74777,0.44973 -6.40303,0.54549 l -5.77428,0.0978 -0.89158,2.314 c -1.0885,2.82507 -1.43879,3.5099 -2.6058,5.0944 -1.98724,2.69816 -4.80825,5.04644 -7.64384,6.3629 -2.21034,1.02619 -3.11301,1.17326 -7.20106,1.17326 -4.08805,0 -4.99073,-0.14707 -7.20107,-1.17326 -2.83558,-1.31646 -5.6566,-3.66474 -7.64383,-6.3629 -1.15139,-1.56329 -1.49638,-2.23506 -2.61623,-5.09441 l -0.90628,-2.31399 H 112.52518 92.312739 l -0.436863,1.87094 c -0.636561,2.72616 -1.468614,4.24826 -3.944457,7.21567 -1.585064,1.89978 -3.171864,3.13066 -5.474948,4.24693 -3.158757,1.53101 -7.682145,2.28353 -10.791144,1.79525 z m 81.715423,-5.50176 c 6.16543,-1.49759 10.21189,-6.38205 10.21189,-12.32669 0,-7.06426 -5.39121,-12.43104 -12.48761,-12.43104 -4.95363,0 -9.11381,2.52325 -11.15228,6.76413 -1.02718,2.13696 -1.35311,3.53246 -1.34606,5.76332 0.0168,5.30991 3.33749,9.82165 8.64148,11.74086 2.76514,1.00055 3.71593,1.07643 6.13258,0.48942 z m -75.877829,-0.1816 c 3.515438,-0.82878 6.51969,-3.30998 8.167807,-6.74577 2.984459,-6.22163 0.554024,-13.53387 -5.473814,-16.46861 -3.679143,-1.79124 -7.571342,-1.78514 -11.324337,0.0177 -3.078458,1.47885 -5.719025,4.72974 -6.488375,7.98807 -0.376431,1.59425 -0.268201,4.91558 0.219219,6.72731 1.10567,4.10974 4.316586,7.26048 8.572318,8.41165 1.576842,0.42653 4.66892,0.46055 6.327182,0.0696 z M 179.5479,172.3597 c -0.76084,-0.096 -1.35749,-0.67104 -1.55427,-1.49808 -0.21232,-0.89235 -0.48895,-9.13796 -0.67528,-20.12805 l -0.13218,-7.7963 -2.20853,-6.46616 c -3.53617,-10.3532 -5.864,-16.28106 -10.34445,-26.34231 -1.55857,-3.49992 -2.89708,-6.46059 -2.97447,-6.57926 -0.16219,-0.24872 -24.33754,-0.72466 -24.58335,-0.48398 -0.0801,0.0784 -0.12351,7.8174 -0.0964,17.19767 l 0.0493,17.05502 14.64603,0.0494 14.64603,0.0494 0.55679,0.52907 c 1.44184,1.37008 1.46449,2.58102 0.0757,4.04827 l -0.59319,0.62671 H 149.85396 133.3483 l -0.81148,-0.82684 -0.81148,-0.82684 V 120.04196 99.116494 l 0.65136,-0.63132 c 0.35824,-0.34722 0.98736,-0.7119 1.39804,-0.81038 1.02647,-0.24616 18.97327,-0.6263 23.59739,-0.49984 6.79741,0.18591 6.93595,0.29022 10.80174,8.132956 6.64386,13.47875 12.64504,29.27845 13.79953,36.33093 0.3771,2.30362 0.65003,8.69271 0.83275,19.49423 l 0.1582,9.3524 -0.80771,0.83246 c -0.81415,0.8391 -1.63051,1.16509 -2.60871,1.04171 z m -54.17699,-14.56846 c -1.13439,-0.29794 -1.64175,-1.12321 -1.64175,-2.67047 0,-2.1786 1.31613,-2.75892 6.26065,-2.76051 3.66632,-0.001 5.05394,0.30416 5.8883,1.29574 0.48196,0.57277 0.63235,1.76105 0.35422,2.79875 -0.17235,0.64305 -1.15556,1.14385 -2.71204,1.3814 -1.7978,0.27438 -7.04379,0.24547 -8.14938,-0.0449 z m -81.384626,-6.03861 c -3.300586,-0.19579 -3.449689,-0.23463 -3.839354,-1.00007 -1.333502,-2.61945 -8.236855,-25.68864 -10.136827,-33.87461 -1.23514,-5.32155 -1.300628,-7.88862 -0.27929,-10.94794 1.497088,-4.48437 5.439448,-8.141065 9.723895,-9.019305 0.867837,-0.17789 8.163279,-0.26664 29.190705,-0.35511 l 28.033708,-0.11794 1.617019,-4.627986 c 2.53288,-7.249227 2.59974,-7.422827 3.07742,-7.990527 0.61824,-0.73473 2.14376,-1.12901 5.3033,-1.37067 1.61308,-0.12337 10.7244,-0.17693 24.25811,-0.1426 l 21.6747,0.055 0.66498,0.96417 c 0.87824,1.27336 0.81714,2.30971 -0.19588,3.32274 l -0.67147,0.67146 -3.9293,0.162459 c -2.16111,0.0893 -5.92512,0.16707 -8.36445,0.17271 -2.43934,0.006 -6.43101,0.0667 -8.87037,0.13567 l -4.4352,0.125411 -2.86443,8.310582 c -13.99075,40.591416 -17.24166,49.747776 -19.11628,53.841936 -0.55562,1.21348 -0.70393,1.38965 -1.27948,1.51981 -0.61877,0.13994 -57.335176,0.29689 -59.561506,0.16483 z m 53.931961,-5.39501 c 2.472825,-0.0946 2.947135,-0.16138 3.053175,-0.42978 0.65465,-1.65697 16.90958,-48.926066 18.00882,-52.369352 1.02962,-3.225247 1.0983,-3.713227 0.62831,-4.463917 -0.82338,-1.31511 -3.02623,-1.66838 -9.85523,-1.58046 l -4.13494,0.0532 -1.75652,4.820827 c -1.73529,4.762586 -3.43637,8.659872 -3.969086,9.093452 -0.20275,0.16502 -8.128411,0.27246 -30.427203,0.41246 l -30.153039,0.18932 -1.705558,1.69765 c -2.725795,2.71317 -3.463705,4.50061 -3.070316,7.43723 0.553469,4.13159 3.892234,16.44274 9.187539,33.87757 l 0.488058,1.60693 25.389182,-0.11657 c 13.96405,-0.0641 26.706614,-0.16698 28.316808,-0.22859 z M 50.236253,136.08587 c -1.042901,-0.63596 -1.481909,-1.36001 -1.357321,-2.23861 0.151441,-1.06798 1.928282,-6.87478 4.071385,-13.30548 2.175354,-6.52748 3.2807,-9.50456 3.701567,-9.96962 0.85216,-0.94163 2.752302,-0.77992 3.860783,0.32856 1.069828,1.06983 1.010873,1.34819 -2.531978,11.95506 -3.284108,9.83221 -4.529199,12.78149 -5.613059,13.29582 -0.830285,0.394 -1.406618,0.37622 -2.131377,-0.0657 z m 18.713653,0.005 c -0.919298,-0.56061 -1.308958,-1.29442 -1.180564,-2.22326 0.282368,-2.04272 4.369938,-14.87577 6.275111,-19.70089 1.209925,-3.06431 1.568663,-3.6644 2.438624,-4.07926 0.591561,-0.28209 0.802669,-0.29296 1.592193,-0.0819 1.032872,0.27605 1.689831,0.8061 1.865218,1.50491 0.150047,0.59783 -0.437561,2.80141 -2.433915,9.12738 -1.926377,6.10423 -3.805417,11.35869 -4.815297,13.46529 -0.680016,1.41851 -0.864131,1.64883 -1.576607,1.9723 -1.015599,0.4611 -1.429149,0.46406 -2.164763,0.0155 z m 19.002104,-0.0149 c -0.975066,-0.51579 -1.388196,-1.05137 -1.388196,-1.79964 0,-1.547 3.223777,-11.79421 5.931232,-18.85322 1.772099,-4.6203 2.035582,-5.11201 2.890497,-5.39416 1.024447,-0.33809 2.234202,-0.0959 2.878143,0.57624 0.502525,0.52453 0.526398,0.62593 0.395445,1.67981 -0.171616,1.38112 -1.072971,4.54474 -2.736943,9.60624 -2.941151,8.94646 -4.570968,13.12713 -5.505257,14.12163 -0.509415,0.54225 -1.510654,0.56788 -2.464921,0.0631 z"
       id="path117" />
  </g>
</svg>
