<?xml version="1.0" encoding="UTF-8" standalone="no"?>
<!-- Created with Inkscape (http://www.inkscape.org/) -->

<svg
   width="80px"
   height="80px"
   viewBox="0 0 192.83302 192.83302"
   version="1.1"
   id="svg5"
   sodipodi:docname="autoriksha.svg"
   inkscape:version="1.1.1 (3bf5ae0d25, 2021-09-20)"
   xmlns:inkscape="http://www.inkscape.org/namespaces/inkscape"
   xmlns:sodipodi="http://sodipodi.sourceforge.net/DTD/sodipodi-0.dtd"
   xmlns="http://www.w3.org/2000/svg"
   xmlns:svg="http://www.w3.org/2000/svg">
  <sodipodi:namedview
     id="namedview7"
     pagecolor="#ffffff"
     bordercolor="#666666"
     borderopacity="1.0"
     inkscape:pageshadow="2"
     inkscape:pageopacity="0.0"
     inkscape:pagecheckerboard="0"
     inkscape:document-units="mm"
     showgrid="false"
     inkscape:zoom="0.54342031"
     inkscape:cx="241.0657"
     inkscape:cy="405.76326"
     inkscape:window-width="1440"
     inkscape:window-height="837"
     inkscape:window-x="-8"
     inkscape:window-y="-8"
     inkscape:window-maximized="1"
     inkscape:current-layer="layer1" />
  <defs
     id="defs2" />
  <g
     inkscape:label="Layer 1"
     inkscape:groupmode="layer"
     id="layer1"
     transform="translate(-12.158902,-41.372017)">
    <path
       style="fill:#000000;stroke-width:0.292747"
       d="m 62.238484,203.60944 c -3.709665,-0.51303 -7.61447,-2.2297 -10.763104,-4.73181 -3.82046,-3.03598 -6.403888,-7.20582 -7.621013,-12.30085 l -0.636631,-2.66501 h -3.715554 c -3.96329,0 -4.44941,-0.15806 -4.79014,-1.55739 -0.0854,-0.35103 -0.1186,-23.42864 -0.0736,-51.28359 l 0.0818,-50.64537 0.84141,-1.821587 c 1.03093,-2.231907 3.3154,-4.482011 5.67146,-5.586138 l 1.68407,-0.789214 h 50.93812 50.938118 l 1.96866,0.932592 c 2.33869,1.107885 4.30222,3.017785 5.29631,5.151652 0.48139,1.03335 2.5282,10.047107 6.32964,27.874505 3.08999,14.49101 5.71449,26.66177 5.83221,27.04611 0.1977,0.64548 0.69872,0.80688 6.56405,2.1145 3.49252,0.77863 6.90197,1.69727 7.57658,2.04143 1.99034,1.01539 4.17473,3.29497 5.10393,5.32633 0.78396,1.71388 0.83974,2.09885 0.94327,6.51088 0.10212,4.35097 0.0676,4.74173 -0.47784,5.41584 l -0.58789,0.72654 -12.68764,0.16224 -12.68763,0.16224 -2.62029,0.80493 c -10.77482,3.30994 -18.32671,12.56058 -19.09547,23.39085 -0.13564,1.91087 -0.33217,2.78279 -0.74581,3.30863 l -0.56163,0.71402 h -23.84688 c -18.824262,0 -23.869825,0.0771 -23.955797,0.36593 -0.0599,0.20127 -0.334509,1.35396 -0.610241,2.56154 -2.483934,10.87848 -13.233701,18.29955 -24.292413,16.7702 z m 7.315425,-4.76669 c 5.469194,-1.39878 9.842566,-5.2615 11.945704,-10.55085 3.892729,-9.79016 -1.72297,-20.79504 -11.945704,-23.40957 -4.221903,-1.07979 -7.878428,-0.68038 -11.99939,1.31071 -4.157602,2.00877 -7.43995,5.64371 -8.935836,9.89569 -0.995422,2.82944 -1.122157,7.29435 -0.294119,10.36194 1.549426,5.74009 6.055142,10.37041 11.864686,12.19282 3.012401,0.94496 6.185035,1.01246 9.364659,0.19926 z m -7.769456,-4.34102 c -2.297672,-0.59989 -4.432468,-1.91277 -6.223203,-3.82722 -3.886543,-4.15502 -4.529272,-10.58252 -1.564162,-15.6421 0.996021,-1.69958 3.61741,-4.06711 5.533551,-4.99766 7.834589,-3.80479 17.265717,1.18078 18.65225,9.86013 1.053351,6.59371 -3.204578,12.97286 -9.806935,14.69254 -2.19459,0.57163 -4.172368,0.54592 -6.591501,-0.0856 z m 7.187489,-4.73513 c 5.454998,-2.64072 6.679126,-9.86074 2.397744,-14.14212 -1.74479,-1.74479 -3.41966,-2.3895 -6.203724,-2.38797 -1.971464,10e-4 -2.579268,0.12556 -3.841831,0.78682 -1.865059,0.97683 -3.726454,3.05326 -4.333121,4.83374 -1.653088,4.85154 0.952501,9.87663 5.979344,11.53167 1.30398,0.42932 4.517752,0.0961 6.001588,-0.62214 z M 43.854367,177.14829 c 1.957573,-8.19464 7.900901,-14.37999 15.895761,-16.54306 2.607218,-0.7054 8.237701,-0.72451 10.831669,-0.0367 8.018785,2.12607 14.352916,8.71961 16.077336,16.7358 l 0.508248,2.36265 22.279049,0.075 c 21.03548,0.0708 22.287,0.0464 22.42173,-0.43913 0.0784,-0.28277 0.23246,-1.30454 0.34216,-2.27062 0.63241,-5.56938 4.07202,-12.31298 8.57211,-16.80622 4.05885,-4.05266 8.83362,-6.72805 14.77477,-8.27853 2.21019,-0.57681 3.32525,-0.63877 13.46105,-0.7479 l 11.05123,-0.11898 -0.002,-2.39344 c -0.002,-3.14568 -0.38026,-4.38124 -1.81808,-5.9411 -1.41139,-1.53117 -2.27357,-1.82381 -10.76845,-3.65507 -4.22766,-0.91136 -5.87778,-1.38985 -6.36079,-1.84445 -0.56159,-0.52857 -1.46638,-4.41732 -6.51141,-27.98561 -3.22245,-15.054468 -6.06906,-27.932863 -6.3257,-28.618667 -0.56681,-1.514685 -1.90219,-2.902844 -3.48346,-3.621163 -1.12534,-0.511211 -3.36808,-0.535108 -50.65185,-0.539692 -35.293745,-0.0034 -49.810018,0.08812 -50.645374,0.319376 -1.553714,0.430125 -3.780024,2.656437 -4.210154,4.210153 -0.22564,0.815089 -0.32467,8.978595 -0.3258,26.859603 l -0.002,25.68863 H 56.52952 74.094388 V 107.81859 82.078028 l 0.77135,-0.606743 c 0.766757,-0.603133 0.921046,-0.606743 25.921492,-0.606743 h 25.15013 l 0.71856,0.718562 0.71856,0.718563 v 45.642483 45.64248 l -0.60674,0.77135 -0.60674,0.77135 h -16.60938 c -13.878142,0 -16.702868,-0.0683 -17.177684,-0.41529 -0.547094,-0.39982 -0.573713,-1.00231 -0.714637,-16.17432 -0.144742,-15.58331 -0.153621,-15.77258 -0.796559,-16.97488 -0.79831,-1.49285 -2.380214,-2.83558 -3.864652,-3.28033 -0.795414,-0.23831 -7.843733,-0.33415 -24.574348,-0.33415 H 38.964692 v 20.93147 20.93146 h 2.12635 2.126354 z m 0.220445,-22.35162 c -0.395209,-0.39521 -0.718562,-1.05989 -0.718562,-1.47705 0,-0.41717 0.323353,-1.08183 0.718562,-1.47704 l 0.718563,-0.71857 h 20.335338 c 11.184434,0 20.548587,0.0819 20.809229,0.18185 0.260639,0.10002 0.677003,0.57462 0.92525,1.05468 0.371354,0.71813 0.388263,1.02515 0.0954,1.7322 -0.195778,0.47265 -0.592707,0.98608 -0.882062,1.14093 -0.322344,0.17251 -8.418607,0.28156 -20.904624,0.28156 H 44.793379 Z m 0,-8.78243 c -0.395209,-0.39522 -0.718562,-1.05989 -0.718562,-1.47706 0,-0.41716 0.323353,-1.08183 0.718562,-1.47704 l 0.718563,-0.71856 h 20.335338 c 11.184434,0 20.548587,0.0819 20.809229,0.18184 0.260639,0.10003 0.677003,0.57463 0.92525,1.05468 0.371354,0.71813 0.388263,1.02516 0.0954,1.7322 -0.195778,0.47265 -0.592707,0.98608 -0.882062,1.14094 -0.322344,0.17251 -8.418607,0.28156 -20.904624,0.28156 H 44.793377 Z m 88.409828,-17.56487 -0.71856,-0.71856 V 105.01624 82.301667 l 0.71856,-0.718563 c 0.70455,-0.704536 0.81235,-0.718562 5.52273,-0.718562 4.41698,0 4.86634,0.0489 5.57552,0.606743 1.06673,0.839095 1.06673,2.338634 0,3.177727 -0.67759,0.53299 -1.17579,0.60675 -4.09847,0.60675 h -3.32712 v 19.760478 19.76047 h 8.01109 c 7.66131,0 8.04476,0.0264 8.78243,0.60675 0.55944,0.44005 0.77135,0.87655 0.77135,1.58886 0,0.71232 -0.21191,1.14881 -0.77135,1.58887 -0.74432,0.58547 -1.10387,0.60674 -10.25948,0.60674 h -9.48814 z m -9.50099,-0.30606 V 85.255762 H 100.73482 78.485988 v 24.125418 24.12542 l 4.464405,0.11484 c 5.583037,0.14363 7.127744,0.64757 9.601469,3.13235 1.828304,1.83649 2.763906,3.54807 3.201886,5.85754 0.173889,0.91692 0.297109,7.13499 0.297109,14.99309 v 13.42644 h 13.466403 13.46639 z m 35.82855,75.37665 c -8.5199,-1.53953 -15.52988,-8.15169 -17.70656,-16.70168 -0.52519,-2.06297 -0.52519,-7.84853 0,-9.91148 2.06902,-8.12712 8.0885,-14.1594 16.42225,-16.45718 1.81867,-0.50145 7.95966,-0.49454 9.93245,0.0112 4.08684,1.04762 7.31396,2.86745 10.35825,5.84121 2.5391,2.48027 4.3049,5.30793 5.51242,8.82734 0.89265,2.6017 0.9542,3.03605 0.9542,6.73321 0,3.66101 -0.0672,4.1472 -0.91158,6.60117 -1.20818,3.51095 -2.64454,5.89175 -5.13871,8.51746 -3.97489,4.18451 -9.08831,6.49671 -14.81537,6.69926 -1.7108,0.0605 -3.78411,-0.0117 -4.60735,-0.16047 z m 7.90914,-4.67086 c 3.30699,-0.84579 5.55276,-2.14555 8.08852,-4.68131 2.53576,-2.53577 3.83552,-4.78153 4.68131,-8.08852 1.05634,-4.13023 0.50792,-8.62129 -1.52708,-12.50558 -1.2442,-2.37485 -4.79579,-5.92645 -7.17064,-7.17064 -3.88429,-2.035 -8.37535,-2.58341 -12.50559,-1.52708 -3.30699,0.84578 -5.55275,2.14554 -8.08852,4.6813 -2.53576,2.53577 -3.83552,4.78153 -4.6813,8.08853 -1.05634,4.13023 -0.50792,8.62129 1.52708,12.50559 1.24542,2.37717 4.79566,5.92635 7.17522,7.17308 3.88355,2.0347 8.36811,2.58164 12.501,1.52463 z m -7.35951,-4.26421 c -6.68414,-1.80012 -10.92321,-8.21371 -9.79138,-14.81405 1.22328,-7.13358 8.02668,-12.04267 15.02622,-10.84239 5.58762,0.95818 9.88608,5.26746 10.84766,10.875 1.55922,9.09265 -7.22554,17.16672 -16.0825,14.78144 z m 6.26152,-4.56736 c 3.2601,-1.21975 5.66369,-4.68063 5.66369,-8.15499 0,-0.79298 -0.28235,-2.19643 -0.62744,-3.11876 -1.21975,-3.26008 -4.68064,-5.66368 -8.15499,-5.66368 -2.15965,0 -4.56317,1.02232 -6.16165,2.62079 -3.44415,3.44414 -3.4437,8.87958 8.7e-4,12.3243 2.48102,2.48101 5.97072,3.23028 9.27939,1.99234 z"
       id="path1670" />
  </g>
</svg>
