<?xml version="1.0" encoding="UTF-8" standalone="no"?>
<!-- Created with Inkscape (http://www.inkscape.org/) -->

<svg
   width="80px"
   height="80px"
   viewBox="0 0 192.83302 192.83302"
   version="1.1"
   id="svg5"
   sodipodi:docname="school-bus.svg"
   inkscape:version="1.1.1 (3bf5ae0d25, 2021-09-20)"
   xmlns:inkscape="http://www.inkscape.org/namespaces/inkscape"
   xmlns:sodipodi="http://sodipodi.sourceforge.net/DTD/sodipodi-0.dtd"
   xmlns="http://www.w3.org/2000/svg"
   xmlns:svg="http://www.w3.org/2000/svg">
  <sodipodi:namedview
     id="namedview7"
     pagecolor="#ffffff"
     bordercolor="#666666"
     borderopacity="1.0"
     inkscape:pageshadow="2"
     inkscape:pageopacity="0.0"
     inkscape:pagecheckerboard="0"
     inkscape:document-units="mm"
     showgrid="false"
     inkscape:zoom="0.38425619"
     inkscape:cx="463.23262"
     inkscape:cy="257.64061"
     inkscape:window-width="1284"
     inkscape:window-height="860"
     inkscape:window-x="52"
     inkscape:window-y="0"
     inkscape:window-maximized="0"
     inkscape:current-layer="layer1" />
  <defs
     id="defs2" />
  <g
     inkscape:label="Layer 1"
     inkscape:groupmode="layer"
     id="layer1"
     transform="translate(-12.158902,-41.372017)">
    <path
       style="fill:#000000;stroke-width:0.313002"
       d="m 63.51567,217.62078 c -2.38493,-0.72547 -4.42096,-2.52255 -5.51991,-4.8721 -0.6542,-1.39866 -0.73232,-2.01789 -0.73506,-5.82581 l -0.004,-4.26082 -1.98913,-0.97924 c -2.40719,-1.18505 -4.62259,-3.45601 -5.77957,-5.92449 l -0.83886,-1.78976 -0.0848,-35.14218 -0.0848,-35.14217 0.77483,-0.77483 c 0.98528,-0.98528 2.18382,-0.98776 3.16503,-0.007 l 0.76827,0.76827 v 22.86338 22.86339 l 8.05981,0.002 c 4.43289,9.4e-4 8.56079,0.14092 9.17311,0.31102 0.61231,0.1701 1.47794,0.69751 1.92362,1.17201 0.79193,0.84316 6.19664,13.03012 6.19664,13.97266 0,0.26192 -0.16827,0.84554 -0.37393,1.29693 -0.75902,1.66572 -1.12987,1.71263 -13.53912,1.71263 H 53.18767 l 0.001,2.11277 c 9.7e-4,1.16202 0.15771,2.67617 0.34834,3.36477 0.45989,1.66122 2.84023,4.04155 4.50145,4.50145 1.77344,0.49094 99.95228,0.49094 101.72571,0 1.66121,-0.4599 4.04156,-2.84023 4.50144,-4.50145 0.19063,-0.6886 0.34739,-2.20275 0.34834,-3.36477 l 0.002,-2.11277 h -11.44012 c -12.40924,0 -12.7801,-0.0469 -13.53911,-1.71277 -0.20567,-0.45138 -0.37395,-1.035 -0.37395,-1.29692 0,-0.94254 5.40472,-13.1295 6.19665,-13.97266 0.44567,-0.4745 1.3113,-1.00191 1.92362,-1.17201 0.61231,-0.1701 4.74021,-0.31006 9.1731,-0.31102 l 8.05981,-0.002 -0.002,-43.89856 c -10e-4,-31.135284 -0.10256,-44.262568 -0.34834,-45.150561 -0.45988,-1.661213 -2.84023,-4.041558 -4.50144,-4.501442 -1.77343,-0.49095 -99.95227,-0.49095 -101.72571,0 -1.66122,0.459884 -4.04156,2.840229 -4.50145,4.501442 -0.23291,0.841349 -0.34717,6.604874 -0.34834,17.571699 -0.001,15.477302 -0.0319,16.357022 -0.58742,17.042962 -0.81382,1.00503 -2.70987,1.00503 -3.52369,0 -0.54486,-0.67288 -0.58567,-1.41873 -0.58567,-10.70467 v -9.981394 h -2.81702 -2.81702 v 14.742644 c 0,16.29108 0.0163,16.14699 -1.99485,17.58159 -0.89343,0.63729 -1.33792,0.6981 -5.10299,0.6981 -3.67839,0 -4.21989,-0.0701 -5.00805,-0.64826 -2.00541,-1.4711 -1.97823,-1.222 -1.97823,-18.13188 0,-16.909068 -0.0271,-16.66013 1.97752,-18.131873 0.83298,-0.611524 1.35871,-0.653489 9.27934,-0.740701 l 8.39632,-0.09245 0.12043,-4.915589 c 0.11274,-4.603347 0.17697,-5.039298 1.01037,-6.863202 1.0909,-2.387466 3.52741,-4.789835 6.05416,-5.969335 1.70106,-0.794065 2.10627,-0.84669 7.33085,-0.952018 l 5.53025,-0.111498 0.10375,-3.67401 c 0.0976,-3.453661 0.16064,-3.766302 1.0519,-5.212837 1.03017,-1.671977 3.25666,-3.364209 5.09992,-3.876166 1.58415,-0.439994 66.76132,-0.439994 68.34547,0 1.84326,0.511957 4.06975,2.204189 5.09992,3.876166 0.89127,1.446535 0.95436,1.759176 1.05191,5.212837 l 0.10375,3.67401 5.53025,0.111498 c 5.21596,0.105157 5.63198,0.15898 7.32003,0.947064 2.49607,1.165319 4.73683,3.36389 5.95977,5.847565 0.99254,2.015762 1.01693,2.167113 1.12526,6.982967 l 0.11072,4.922548 8.39634,0.09245 c 7.92062,0.08721 8.44635,0.129177 9.27932,0.740701 2.00409,1.471304 1.97748,1.228079 1.97803,18.084573 6.3e-4,16.89647 0.0232,16.69018 -1.99437,18.12934 -0.89342,0.63729 -1.33791,0.6981 -5.103,0.6981 -3.67838,0 -4.21988,-0.0701 -5.00803,-0.64826 -1.99898,-1.46638 -1.97819,-1.28155 -1.97873,-17.58412 l -4.9e-4,-14.789354 h -2.81232 -2.81231 l -0.0829,49.852284 -0.0829,49.85227 -1.01453,2.06071 c -1.21554,2.46899 -3.47226,4.69283 -5.88152,5.79583 l -1.71152,0.78356 -0.004,4.28082 c -0.002,3.84108 -0.0791,4.44423 -0.74363,5.87128 -0.98525,2.11592 -2.70686,3.72895 -4.8263,4.52194 -1.64312,0.61477 -2.25693,0.6445 -11.46239,0.55511 -9.27868,-0.0901 -9.78392,-0.12559 -10.97831,-0.77108 -1.78868,-0.96666 -3.26844,-2.52484 -4.11341,-4.3314 -0.6511,-1.39203 -0.73234,-2.02341 -0.73506,-5.71228 l -0.002,-4.14728 H 108.90137 90.12123 l -0.004,4.14728 c -0.002,3.70059 -0.0828,4.31857 -0.74364,5.73771 -0.97923,2.10298 -2.70422,3.72797 -4.78302,4.50574 -1.56683,0.58623 -2.38499,0.63136 -10.99289,0.60647 -5.11504,-0.0148 -9.65311,-0.13429 -10.08461,-0.26555 z m 20.84113,-5.72825 1.07104,-1.16917 v -3.91711 -3.91713 H 73.69026 61.95267 v 3.88851 c 0,3.75655 0.0284,3.9222 0.83524,4.88113 0.45937,0.54593 1.12841,1.11433 1.48676,1.2631 0.35834,0.14876 4.78243,0.24109 9.83131,0.20516 l 9.17978,-0.0653 z m 70.42549,0 1.07104,-1.16917 v -3.91711 -3.91713 h -11.73757 -11.73759 v 3.88851 c 0,3.75655 0.0284,3.9222 0.83523,4.88113 0.45937,0.54593 1.12842,1.11433 1.48676,1.2631 0.35835,0.14876 4.78244,0.24109 9.83132,0.20516 l 9.17977,-0.0653 z m -81.9657,-29.1138 c -0.087,-0.21519 -0.96384,-2.25753 -1.94857,-4.53853 l -1.79042,-4.14728 h -7.94449 -7.94449 v 4.53853 4.53853 h 9.89305 c 7.79012,0 9.85944,-0.0832 9.73492,-0.39125 z m 91.8008,-4.14728 v -4.53853 h -7.94448 -7.94449 l -1.79044,4.14728 c -0.98473,2.281 -1.86158,4.32334 -1.94855,4.53853 -0.12453,0.30808 1.94479,0.39125 9.73491,0.39125 h 9.89305 z M 38.16451,108.51896 V 94.277362 H 35.817 33.46948 v 14.241598 14.2416 h 2.34752 2.34751 z m 146.17202,0 V 94.277362 h -2.34752 -2.34751 v 14.241598 14.2416 h 2.34751 2.34752 z M 144.83712,68.063429 c -0.16392,-3.259681 -0.75928,-4.624897 -2.29712,-5.267444 -1.65446,-0.691281 -66.11212,-0.662655 -67.45148,0.02995 -1.39712,0.722483 -1.96288,2.120444 -2.11962,5.237489 l -0.13772,2.73877 H 108.903 144.97483 Z M 90.27937,187.56851 c -0.3443,-0.14545 -0.9912,-0.66643 -1.43757,-1.15773 -0.88804,-0.97745 -8.70985,-18.46947 -8.93721,-19.98642 -0.18704,-1.24788 0.71803,-2.93938 2.04827,-3.82803 l 1.06354,-0.7105 h 15.30504 15.30506 l 0.76828,0.76828 c 0.92151,0.92152 0.98352,2.02648 0.17011,3.03132 l -0.59815,0.73893 -14.53957,0.15651 -14.53956,0.1565 3.61558,8.2163 3.61558,8.21631 h 16.78423 16.78425 l 3.61619,-8.21631 3.6162,-8.2163 -5.15078,-0.1565 c -4.94432,-0.15023 -5.17473,-0.18612 -5.74827,-0.89544 -0.81276,-1.00514 -0.75051,-2.11003 0.17079,-3.03132 0.76129,-0.76129 0.82174,-0.76827 6.65129,-0.76711 5.27908,9.4e-4 5.98571,0.0638 6.88327,0.61106 1.38694,0.84568 2.06928,2.01254 2.07849,3.55443 0.0106,1.84816 -7.54965,18.97525 -9.07637,20.56052 l -1.05505,1.0955 -18.38382,0.0622 c -10.11109,0.0342 -18.66551,-0.0568 -19.00982,-0.20223 z m 6.30226,-10.99429 c -0.59815,-0.47051 -0.82472,-0.93719 -0.82472,-1.6988 0,-0.7616 0.22657,-1.22828 0.82472,-1.69879 0.80035,-0.62955 1.16446,-0.64872 12.32137,-0.64872 11.15692,0 11.52104,0.0191 12.32138,0.64872 0.59816,0.47051 0.82472,0.93719 0.82472,1.69879 0,0.76161 -0.22656,1.22829 -0.82472,1.6988 -0.80034,0.62955 -1.16446,0.64872 -12.32138,0.64872 -11.15691,0 -11.52102,-0.0191 -12.32137,-0.64872 z M 61.17088,152.00266 c -1.41131,-0.73587 -2.06396,-1.41147 -2.69856,-2.79342 -0.54373,-1.18409 -0.57493,-2.71228 -0.57493,-28.17019 0,-25.457914 0.0312,-26.986106 0.57493,-28.170196 0.68385,-1.489209 1.38188,-2.156561 2.93401,-2.805083 1.01931,-0.425899 6.49899,-0.481441 47.49667,-0.481441 40.99769,0 46.47737,0.05554 47.49669,0.481441 1.55213,0.648522 2.25015,1.315874 2.934,2.805083 0.54374,1.18409 0.57492,2.712282 0.57492,28.170196 0,25.45791 -0.0312,26.9861 -0.57492,28.17019 -0.68385,1.48921 -1.38187,2.15656 -2.934,2.80509 -1.01947,0.42596 -6.51858,0.48122 -47.72139,0.47951 -41.61874,-0.002 -46.66887,-0.0539 -47.50742,-0.49118 z m 93.89995,-30.96361 V 94.433864 H 108.903 62.73518 l -0.0808,26.292186 c -0.0445,14.4607 -0.0135,26.46871 0.0688,26.68447 0.11919,0.31243 9.53432,0.37615 46.24865,0.313 l 46.09899,-0.0793 z M 69.62124,84.513276 c -0.87726,-0.49746 -1.08523,-0.88633 -1.09072,-2.039553 -0.006,-1.160236 1.00023,-2.281459 2.04652,-2.281459 1.17462,0 2.33071,1.164436 2.33071,2.347517 0,0.761602 -0.22655,1.228285 -0.82471,1.698794 -0.92433,0.727072 -1.54243,0.796045 -2.4618,0.274701 z m 12.87529,-0.274701 c -0.59815,-0.470509 -0.82472,-0.937192 -0.82472,-1.698794 0,-0.761603 0.22657,-1.228286 0.82472,-1.698795 0.81907,-0.644276 1.00005,-0.648722 26.40647,-0.648722 25.40644,0 25.58742,0.0045 26.40648,0.648722 1.14054,0.897151 1.14054,2.500438 0,3.397589 -0.81906,0.644275 -1.00004,0.648722 -26.40648,0.648722 -25.40642,0 -25.5874,-0.0045 -26.40647,-0.648722 z m 63.22644,0 c -1.62684,-1.279677 -0.59713,-4.046311 1.506,-4.046311 1.04629,0 2.05206,1.121223 2.04653,2.281459 -0.006,1.180307 -0.22109,1.565621 -1.14839,2.053714 -0.96953,0.510319 -1.46361,0.450954 -2.40414,-0.288862 z"
       id="path5655" />
  </g>
</svg>
