<?xml version="1.0" encoding="UTF-8" standalone="no"?>
<!-- Created with Inkscape (http://www.inkscape.org/) -->

<svg
  width="80px"
   height="80px"
   viewBox="0 0 192.83302 192.83302"
   version="1.1"
   id="svg5"
   sodipodi:docname="tempo.svg"
   inkscape:version="1.1.1 (3bf5ae0d25, 2021-09-20)"
   xmlns:inkscape="http://www.inkscape.org/namespaces/inkscape"
   xmlns:sodipodi="http://sodipodi.sourceforge.net/DTD/sodipodi-0.dtd"
   xmlns="http://www.w3.org/2000/svg"
   xmlns:svg="http://www.w3.org/2000/svg">
  <sodipodi:namedview
     id="namedview7"
     pagecolor="#ffffff"
     bordercolor="#666666"
     borderopacity="1.0"
     inkscape:pageshadow="2"
     inkscape:pageopacity="0.0"
     inkscape:pagecheckerboard="0"
     inkscape:document-units="mm"
     showgrid="false"
     inkscape:zoom="0.54342031"
     inkscape:cx="241.0657"
     inkscape:cy="405.76326"
     inkscape:window-width="1440"
     inkscape:window-height="837"
     inkscape:window-x="-8"
     inkscape:window-y="-8"
     inkscape:window-maximized="1"
     inkscape:current-layer="layer1" />
  <defs
     id="defs2" />
  <g
     inkscape:label="Layer 1"
     inkscape:groupmode="layer"
     id="layer1"
     transform="translate(-12.158902,-41.372017)">
    <path
       style="fill:#000000;stroke-width:0.301413"
       d="m 60.108074,206.03795 c -3.819479,-0.52821 -7.839875,-2.29571 -11.081716,-4.87187 -3.933555,-3.12585 -6.593458,-7.41912 -7.846613,-12.66499 l -0.655476,-2.74389 h -3.825543 c -4.080611,0 -4.581126,-0.16274 -4.931935,-1.60351 -0.088,-0.36141 -0.122111,-24.12217 -0.0758,-52.80169 l 0.08419,-52.144588 0.866313,-1.87551 c 1.061455,-2.297977 3.413551,-4.614689 5.839347,-5.7515 l 1.733927,-0.812577 h 52.446004 52.446008 l 2.02694,0.960199 c 2.40792,1.140681 4.42959,3.107118 5.4531,5.304152 0.49565,1.06394 2.60304,10.344522 6.517,28.699654 3.18147,14.91998 5.88366,27.45102 6.00487,27.84674 0.20354,0.66459 0.71941,0.83076 6.75836,2.1771 3.59589,0.80166 7.10629,1.7475 7.80087,2.10185 2.04925,1.04545 4.29831,3.39252 5.255,5.484 0.80718,1.76462 0.86461,2.16099 0.9712,6.70362 0.10515,4.47977 0.0696,4.88209 -0.49198,5.57616 l -0.6053,0.74804 -13.06321,0.16704 -13.06323,0.16704 -2.69785,0.82876 c -11.09377,3.40794 -18.86922,12.9324 -19.66073,24.08329 -0.13966,1.96743 -0.34201,2.86516 -0.76789,3.40658 l -0.57826,0.73515 h -24.55282 c -19.381506,0 -24.576429,0.0793 -24.664945,0.37675 -0.06168,0.20724 -0.344412,1.39405 -0.628307,2.63738 -2.557463,11.20051 -13.625448,18.84126 -25.011524,17.26662 z m 7.531978,-4.90779 c 5.631095,-1.44019 10.133928,-5.41725 12.299324,-10.86318 4.007963,-10.07996 -1.773974,-21.41062 -12.299324,-24.10255 -4.346881,-1.11174 -8.111647,-0.70051 -12.354599,1.34951 -4.280676,2.06825 -7.660189,5.81078 -9.200357,10.18863 -1.024889,2.9132 -1.155375,7.51028 -0.302826,10.66869 1.595293,5.90999 6.234388,10.67738 12.215908,12.55374 3.101575,0.97293 6.368126,1.04244 9.641874,0.20516 z m -7.999449,-4.46953 c -2.365688,-0.61765 -4.563679,-1.96939 -6.407424,-3.94049 -4.001594,-4.27804 -4.663349,-10.8958 -1.610465,-16.10515 1.025505,-1.7499 3.724493,-4.1875 5.697356,-5.14561 8.066511,-3.91743 17.776822,1.21573 19.204399,10.15201 1.084533,6.78891 -3.299441,13.35688 -10.097242,15.12749 -2.259554,0.58853 -4.29588,0.56206 -6.786624,-0.0883 z m 7.400254,-4.87529 c 5.616479,-2.7189 6.876844,-10.15265 2.468724,-14.56077 -1.796441,-1.79644 -3.520889,-2.46022 -6.387369,-2.45864 -2.029824,0.001 -2.655621,0.12927 -3.955558,0.81011 -1.920268,1.00573 -3.836765,3.14365 -4.461392,4.97683 -1.702022,4.99516 0.980698,10.169 6.156347,11.87303 1.342581,0.44202 4.651487,0.099 6.179248,-0.64056 z M 41.179745,178.79349 c 2.015521,-8.43721 8.134786,-14.80566 16.366312,-17.03276 2.684397,-0.72629 8.481555,-0.74596 11.152311,-0.0378 8.256159,2.189 14.777795,8.97773 16.553262,17.23121 l 0.523293,2.4326 22.938557,0.0772 c 21.65819,0.0729 22.94676,0.0477 23.08548,-0.45211 0.0808,-0.29115 0.23934,-1.34318 0.35229,-2.33784 0.65113,-5.73426 4.19256,-12.67747 8.82586,-17.30372 4.17901,-4.17265 9.09511,-6.92721 15.21214,-8.52361 2.27562,-0.59388 3.42368,-0.65766 13.85951,-0.77002 l 11.37837,-0.12251 -0.002,-2.4643 c -0.002,-3.23879 -0.39149,-4.51093 -1.87189,-6.11696 -1.45316,-1.5765 -2.34086,-1.87781 -11.08721,-3.76327 -4.35281,-0.93834 -6.05177,-1.431 -6.54908,-1.89905 -0.5782,-0.5442 -1.50978,-4.54806 -6.70416,-28.81403 -3.31783,-15.500115 -6.24871,-28.759739 -6.51295,-29.465845 -0.58359,-1.559523 -1.95849,-2.988775 -3.58657,-3.728357 -1.15866,-0.526344 -3.46779,-0.550949 -52.15128,-0.555669 -36.338519,-0.0035 -51.284508,0.09073 -52.144591,0.328831 -1.59971,0.442858 -3.891925,2.735073 -4.334783,4.334783 -0.232326,0.839218 -0.334281,9.244384 -0.335451,27.654717 l -0.0017,26.44905 h 18.08504 18.084829 V 107.41148 80.908941 l 0.794183,-0.624704 c 0.789454,-0.620987 0.948311,-0.624704 26.688822,-0.624704 h 25.894641 l 0.73983,0.739833 0.73984,0.739834 v 46.99361 46.99361 l -0.6247,0.79418 -0.6247,0.79418 h -17.10111 c -14.28897,0 -17.197315,-0.0703 -17.686186,-0.42759 -0.563289,-0.41166 -0.590696,-1.03199 -0.735791,-16.65311 -0.149027,-16.04462 -0.158169,-16.23948 -0.82014,-17.47739 -0.821941,-1.53704 -2.450673,-2.91951 -3.979055,-3.37742 -0.81896,-0.24538 -8.075925,-0.34405 -25.301804,-0.34405 H 36.145676 v 21.55109 21.55109 h 2.189296 2.189297 z m 0.226971,-23.01327 c -0.406908,-0.40692 -0.739833,-1.09126 -0.739833,-1.52077 0,-0.42951 0.332925,-1.11387 0.739833,-1.52077 l 0.739834,-0.73984 h 20.93731 c 11.515519,0 21.156873,0.0843 21.42523,0.18724 0.268355,0.10298 0.697044,0.59163 0.95264,1.0859 0.382346,0.73937 0.399755,1.0555 0.09822,1.78347 -0.201573,0.48665 -0.610252,1.01526 -0.908173,1.1747 -0.331886,0.17763 -8.667817,0.2899 -21.523448,0.2899 H 42.14655 Z m 0,-9.04242 c -0.406908,-0.40691 -0.739833,-1.09125 -0.739833,-1.52077 0,-0.42951 0.332925,-1.11386 0.739833,-1.52076 l 0.739834,-0.73985 h 20.93731 c 11.515519,0 21.156873,0.0843 21.42523,0.18724 0.268355,0.10299 0.697044,0.59164 0.95264,1.0859 0.382346,0.73938 0.399755,1.05551 0.09822,1.78348 -0.201573,0.48664 -0.610252,1.01526 -0.908173,1.1747 -0.331886,0.17762 -8.667817,0.28989 -21.523448,0.28989 H 42.14655 Z m 91.026974,-18.08483 -0.73983,-0.73983 V 104.52617 81.1392 l 0.73983,-0.739834 c 0.72539,-0.725392 0.83638,-0.739833 5.68622,-0.739833 4.54771,0 5.01039,0.05035 5.74056,0.624704 1.09831,0.863934 1.09831,2.407862 0,3.271798 -0.69765,0.548766 -1.2106,0.624704 -4.2198,0.624704 h -3.4256 v 20.345431 20.34544 h 8.24823 c 7.88811,0 8.2829,0.0272 9.04242,0.6247 0.576,0.45308 0.79418,0.90249 0.79418,1.63589 0,0.73341 -0.21818,1.18281 -0.79418,1.63591 -0.76636,0.60281 -1.13655,0.6247 -10.5632,0.6247 h -9.769 z m -9.78224,-0.3151 V 84.180739 H 99.743989 76.836541 v 24.839591 24.83958 l 4.596561,0.11825 c 5.748308,0.14787 7.338742,0.66673 9.885695,3.22507 1.882426,1.89084 2.845724,3.6531 3.296669,6.03093 0.179037,0.94406 0.305904,7.34621 0.305904,15.43693 v 13.82389 h 13.86503 13.86505 z m 36.88915,77.60797 c -8.7721,-1.58511 -15.9896,-8.393 -18.23071,-17.19611 -0.54074,-2.12402 -0.54074,-8.08085 0,-10.20488 2.13027,-8.3677 8.32794,-14.57855 16.90838,-16.94434 1.8725,-0.51628 8.19529,-0.50918 10.22647,0.0115 4.20783,1.07862 7.53048,2.95232 10.66489,6.01412 2.61425,2.55368 4.43232,5.46505 5.67559,9.08865 0.91907,2.67871 0.98245,3.12593 0.98245,6.93251 0,3.76941 -0.0691,4.26997 -0.93856,6.79658 -1.24394,3.61489 -2.72283,6.06618 -5.29083,8.7696 -4.09255,4.3084 -9.35735,6.68904 -15.25394,6.89758 -1.76144,0.0623 -3.89614,-0.0121 -4.74374,-0.16521 z m 8.14327,-4.80914 c 3.40489,-0.87083 5.71713,-2.20905 8.32796,-4.81989 2.61083,-2.61082 3.94906,-4.92306 4.81989,-8.32795 1.0876,-4.2525 0.52296,-8.8765 -1.57229,-12.87578 -1.28103,-2.44515 -4.93776,-6.10188 -7.38291,-7.38291 -3.99927,-2.09524 -8.62327,-2.65989 -12.87577,-1.57228 -3.4049,0.87083 -5.71713,2.20906 -8.32797,4.81988 -2.61082,2.61083 -3.94905,4.92306 -4.81988,8.32797 -1.0876,4.25249 -0.52296,8.8765 1.57229,12.87577 1.28228,2.44755 4.93762,6.10179 7.38762,7.38542 3.99852,2.09494 8.61583,2.65807 12.87106,1.56977 z m -7.57738,-4.39044 c -6.88199,-1.8534 -11.24654,-8.45685 -10.08121,-15.25258 1.25949,-7.34476 8.26429,-12.39917 15.47103,-11.16334 5.75302,0.98653 10.17873,5.42339 11.16878,11.19692 1.60537,9.36181 -7.43945,17.6749 -16.5586,15.219 z m 6.44689,-4.70256 c 3.35659,-1.25587 5.83135,-4.81919 5.83135,-8.39641 0,-0.81645 -0.29071,-2.26143 -0.64602,-3.21107 -1.25586,-3.3566 -4.81919,-5.83134 -8.3964,-5.83134 -2.22358,0 -4.69825,1.05257 -6.34404,2.69837 -3.54611,3.54611 -3.54565,9.14245 9e-4,12.68913 2.55444,2.55445 6.14746,3.32589 9.55408,2.05132 z"
       id="path2973" />
  </g>
</svg>
