<?xml version="1.0" encoding="UTF-8" standalone="no"?>
<!-- Created with Inkscape (http://www.inkscape.org/) -->

<svg
   width="80px"
   height="80px"
   viewBox="0 0 192.83302 192.83302"
   version="1.1"
   id="svg5"
   sodipodi:docname="truck.svg"
   inkscape:version="1.1.1 (3bf5ae0d25, 2021-09-20)"
   inkscape:export-filename="C:\Users\Administrator\Desktop\truck.png"
   inkscape:export-xdpi="1200"
   inkscape:export-ydpi="1200"
   xmlns:inkscape="http://www.inkscape.org/namespaces/inkscape"
   xmlns:sodipodi="http://sodipodi.sourceforge.net/DTD/sodipodi-0.dtd"
   xmlns="http://www.w3.org/2000/svg"
   xmlns:svg="http://www.w3.org/2000/svg">
  <sodipodi:namedview
     id="namedview7"
     pagecolor="#ffffff"
     bordercolor="#666666"
     borderopacity="1.0"
     inkscape:pageshadow="2"
     inkscape:pageopacity="0.0"
     inkscape:pagecheckerboard="0"
     inkscape:document-units="mm"
     showgrid="false"
     inkscape:zoom="2.1736812"
     inkscape:cx="23.002453"
     inkscape:cy="37.263973"
     inkscape:window-width="1284"
     inkscape:window-height="860"
     inkscape:window-x="140"
     inkscape:window-y="0"
     inkscape:window-maximized="0"
     inkscape:current-layer="layer1" />
  <defs
     id="defs2" />
  <g
     inkscape:label="Layer 1"
     inkscape:groupmode="layer"
     id="layer1"
     transform="translate(-12.158902,-41.372017)">
    <path
       style="fill:#000000;stroke-width:0.192833"
       d="m 45.433255,203.01209 c -4.40142,-0.0862 -8.42714,-0.22689 -8.94605,-0.31267 -0.70281,-0.11618 -1.04613,-0.29349 -1.34587,-0.69509 -0.3717,-0.498 -0.3801,-0.5789 -0.1101,-1.06058 0.53875,-0.96112 1.05752,-1.06375 6.15969,-1.21851 2.59843,-0.0788 7.43612,-0.14946 10.75044,-0.157 3.31432,-0.008 6.02603,-0.0701 6.02603,-0.13908 0,-0.069 -0.6972,-1.45531 -1.54934,-3.08078 -1.89359,-3.61205 -2.73946,-5.90222 -3.16038,-8.55665 -0.17659,-1.11361 -0.35979,-2.21015 -0.40711,-2.43677 -0.0848,-0.40596 -0.16476,-0.41345 -5.43896,-0.50942 -4.01328,-0.073 -5.65547,-0.17467 -6.56183,-0.40614 -3.50684,-0.89561 -5.19817,-2.88915 -5.69321,-6.7105 -0.33364,-2.57552 -0.3352,-78.332235 -0.002,-80.903975 0.28402,-2.18995 0.7229,-3.21775 1.92086,-4.49847 1.08485,-1.15979 2.23887,-1.7937 3.83366,-2.10583 3.82654,-0.74892 86.569125,-0.7517 90.913005,-0.003 2.10093,0.36208 4.12969,1.70414 4.90878,3.24723 0.90946,1.80129 1.2492,7.060205 1.25715,19.459515 l 0.005,7.37587 11.81102,0.003 c 15.15004,0.004 17.1311,0.16005 19.26925,1.5187 0.70866,0.4503 1.12801,0.9581 1.95715,2.36996 2.00621,3.41617 5.21736,9.55915 11.46199,21.92703 l 6.26935,12.41684 -0.13481,9.18045 c -0.0741,5.04926 -0.2208,9.7445 -0.3259,10.43388 -0.36636,2.40305 -1.50532,4.14085 -3.68334,5.61991 -1.37941,0.93674 -1.79508,1.70581 -2.27051,4.20089 -0.53847,2.82591 -1.20159,4.59442 -3.08565,8.22934 l -1.70964,3.29843 4.58667,0.10078 c 4.92037,0.10812 5.33958,0.18739 6.04699,1.14353 0.44775,0.6052 0.33451,1.39189 -0.24501,1.70204 -1.04728,0.56049 -7.45857,0.62164 -70.48428,0.67231 -35.211305,0.0283 -67.621715,-0.019 -72.023125,-0.10523 z m 28.0572,-3.97795 c 2.58684,-0.57736 5.01269,-2.00186 6.7445,-3.96049 1.15323,-1.30427 2.48635,-4.0623 2.91098,-6.0224 0.49059,-2.26457 0.44968,-5.45786 -0.089,-6.94624 -1.45605,-4.02321 -4.89084,-7.40936 -8.82316,-8.69819 -1.53113,-0.50183 -1.95651,-0.55819 -4.11793,-0.54555 -2.06756,0.0121 -2.62983,0.0868 -3.95307,0.52536 -0.84847,0.28119 -2.09998,0.83888 -2.78115,1.23932 -2.35609,1.38505 -4.88281,4.32351 -5.8101,6.75687 -0.51516,1.35188 -0.73983,5.7133 -0.40464,7.85516 0.57595,3.68036 4.14493,7.87193 7.95967,9.34819 2.56503,0.99265 5.2735,1.13771 8.36387,0.44797 z m -5.10154,-8.44915 c -1.20151,-0.54302 -1.97191,-1.28055 -2.46681,-2.36155 -0.63484,-1.38666 -0.545,-3.00342 0.24783,-4.46012 0.88114,-1.61894 2.10884,-2.36027 3.94594,-2.38273 2.50804,-0.0307 4.81497,2.23368 4.81902,4.73005 9.7e-4,0.61324 -0.1175,1.40052 -0.26332,1.74952 -0.38333,0.91746 -1.40937,2.01372 -2.31986,2.47866 -1.04194,0.53206 -3.0537,0.65703 -3.9628,0.24617 z m 83.842435,6.80019 c -2.59993,-4.89957 -3.2835,-6.72533 -3.79456,-10.13486 l -0.33796,-2.25467 -30.27841,-0.0488 -30.278415,-0.0488 -0.33587,2.26639 c -0.45414,3.06443 -1.18934,5.12494 -3.23396,9.06375 l -1.72672,3.32637 h 35.568525 35.56853 z m 15.68211,1.89712 c 5.15242,-0.99135 9.06793,-4.54731 10.31675,-9.3694 0.46857,-1.80933 0.46321,-6.4251 -0.009,-8.00257 -0.47662,-1.59119 -1.49024,-3.19345 -3.07697,-4.86386 -1.58765,-1.67138 -3.49932,-2.91185 -5.62263,-3.64847 -1.38317,-0.47985 -1.80184,-0.53473 -4.04949,-0.53085 -2.18863,0.004 -2.70265,0.0692 -4.0495,0.51563 -4.50242,1.49229 -7.9081,5.16007 -9.082,9.78096 -0.43626,1.71732 -0.28412,5.17869 0.30515,6.94199 2.20071,6.58538 8.63523,10.45273 15.268,9.17657 z m -4.26503,-8.69731 c -1.20152,-0.54302 -1.97192,-1.28055 -2.46682,-2.36155 -0.63484,-1.38666 -0.545,-3.00342 0.24784,-4.46012 0.88114,-1.61894 2.10883,-2.36027 3.94594,-2.38273 1.69372,-0.0207 3.29947,0.96874 4.24353,2.61481 1.30718,2.2792 0.40912,5.09355 -2.02595,6.34895 -1.02163,0.5267 -3.03924,0.64979 -3.94454,0.24064 z M 54.348215,179.77507 c 2.2828,-4.05012 3.99857,-6.08833 6.47027,-7.68625 1.64279,-1.06204 3.42033,-1.82766 5.44073,-2.34344 2.08834,-0.53311 6.24943,-0.4894 8.38824,0.0881 3.02874,0.81782 5.77716,2.42895 7.83741,4.59429 1.23011,1.29285 2.00047,2.44848 3.34901,5.02391 l 0.93398,1.7837 h 23.794875 23.79488 l -0.0826,-40.63956 c -0.0856,-42.154145 -0.11916,-43.878315 -0.88133,-45.351525 -0.48653,-0.94041 -1.36239,-1.31382 -3.69242,-1.5742 -2.77653,-0.31029 -71.505365,-0.47729 -80.797035,-0.19633 -8.25869,0.24973 -9.05803,0.42001 -9.76047,2.07927 -0.5978,1.4121 -0.69634,6.008795 -0.7227,33.713845 l -0.0262,27.57512 5.31199,0.0964 c 5.97403,0.10843 6.15381,0.14941 6.54805,1.49263 0.30501,1.03919 0.46258,8.26435 0.23238,10.65585 -0.22963,2.38576 -0.46245,2.9879 -1.27214,3.29018 -0.3721,0.13891 -2.57007,0.26232 -5.78477,0.32478 l -5.18464,0.10075 0.0977,2.5611 c 0.1138,2.98237 0.45122,3.95228 1.6684,4.79579 1.2447,0.86257 2.67174,1.04364 8.35854,1.06055 l 5.15472,0.0153 z m 37.69195,-56.20716 c -1.45372,-0.16903 -1.71884,-0.31694 -2.06466,-1.15183 -0.31401,-0.75807 0.10988,-1.42874 1.10914,-1.75487 0.93566,-0.30536 23.269225,-0.47765 25.804535,-0.19906 1.49187,0.16393 1.7705,0.25438 2.15281,0.69883 0.56456,0.65635 0.55744,1.27483 -0.0209,1.8182 -0.37078,0.34832 -0.81065,0.46614 -2.26579,0.60689 -2.18765,0.2116 -22.869875,0.1964 -24.715085,-0.0181 z m -25.56173,-12.25697 c -0.2448,-0.17147 -0.60599,-0.57635 -0.80266,-0.89973 -0.31635,-0.5202 -0.32669,-0.64765 -0.0897,-1.10585 0.32111,-0.62095 1.08284,-1.15366 1.64963,-1.15366 0.57371,0 1.53039,1.07663 1.53039,1.72227 0,0.53054 -0.50106,1.12601 -1.28894,1.53179 -0.52573,0.27077 -0.46902,0.27615 -0.99867,-0.0948 z m 15.30384,0.12163 c -1.2727,-0.0788 -2.51338,-0.15502 -2.75708,-0.1694 -0.55744,-0.0329 -1.38883,-0.91104 -1.38883,-1.46694 0,-0.8114 0.7976,-1.28142 2.54029,-1.497 2.18882,-0.27076 35.249375,-0.26918 37.138085,0.002 1.08234,0.15527 1.48661,0.3037 1.77729,0.65254 0.8435,1.01228 0.26813,1.99666 -1.3464,2.30352 -1.26451,0.24033 -32.457165,0.39255 -35.963355,0.1755 z m 68.166465,67.74078 c 1.17861,-2.2848 2.21176,-3.78149 3.48783,-5.05267 6.38131,-6.35685 17.33309,-6.41047 23.79837,-0.11651 0.76261,0.74241 1.91763,2.13081 2.5667,3.08533 1.77233,2.60638 2.18537,2.98891 3.22726,2.98891 0.83493,0 1.40967,-0.68165 1.64278,-1.94839 0.10532,-0.57229 0.24407,-4.78831 0.30835,-9.36894 l 0.11687,-8.32842 -18.20078,-0.0718 c -19.26085,-0.076 -19.39399,-0.0825 -19.86944,-0.97085 -0.57664,-1.07746 -0.58206,-24.35604 -0.006,-25.80892 0.39317,-0.99164 0.56781,-1.00615 13.10001,-1.0879 6.39001,-0.0417 11.61625,-0.13384 11.61387,-0.2048 -0.002,-0.071 -0.76462,-1.56079 -1.69389,-3.31075 -1.51689,-2.85657 -1.78433,-3.24552 -2.61679,-3.80583 -0.50998,-0.34325 -1.2839,-0.72013 -1.71983,-0.83751 -1.54499,-0.41602 -5.5719,-0.55141 -16.57484,-0.55724 l -11.1361,-0.006 v 28.73212 28.73212 l 5.44753,-0.003 5.44753,-0.003 1.06058,-2.05601 z M 46.975915,164.7445 v -4.34243 l -4.29053,0.0519 -4.29054,0.0519 -0.0519,4.29054 -0.0519,4.29053 h 4.34243 4.34243 z m 136.911445,-7.90199 c 0,-0.0528 -2.32085,-4.73861 -5.15745,-10.41299 l -5.15744,-10.31704 h -11.71545 -11.71544 v 10.41299 10.41298 h 16.87289 c 9.28009,0 16.87289,-0.0432 16.87289,-0.0959 z"
       id="path117" />
  </g>
</svg>
